<svg width="1920" height="1282" viewBox="0 0 1920 1282" fill="none" xmlns="http://www.w3.org/2000/svg">
<g clip-path="url(#clip0)">
<rect width="1920" height="1282" fill="#FBE6A2"/>
<path d="M1986.88 792.366L1406.85 818.418C1396.99 818.86 1387.35 815.364 1380.06 808.7C1372.77 802.036 1368.43 792.749 1367.98 782.88L1349.34 367.839C1349.13 362.95 1349.87 358.067 1351.54 353.467C1353.21 348.867 1355.76 344.641 1359.07 341.03C1362.37 337.419 1366.35 334.494 1370.78 332.422C1375.21 330.35 1380 329.172 1384.89 328.954L1964.92 302.902C1974.79 302.467 1984.42 305.967 1991.7 312.634C1998.99 319.301 2003.33 328.589 2003.77 338.456L2022.4 753.49C2022.85 763.358 2019.35 772.997 2012.69 780.288C2006.03 787.578 1996.75 791.923 1986.88 792.366V792.366Z" fill="#A3A092"/>
<path d="M1745.04 307.136L1606.65 313.363L1608.06 344.625L1746.45 338.398L1745.04 307.136Z" fill="#706865"/>
<path d="M1484.71 481.533L1392.21 485.696L1396.37 578.232L1488.87 574.069L1484.71 481.533Z" fill="white"/>
<path d="M1429.22 320.606L1338.78 300.739L1318.93 391.213L1409.36 411.08L1429.22 320.606Z" fill="white"/>
<path d="M1535.98 258.481L1453.27 300.124L1494.9 382.865L1577.61 341.223L1535.98 258.481Z" fill="white"/>
<path d="M1684.85 470.376L1592.37 474.98L1596.97 567.5L1689.45 562.896L1684.85 470.376Z" fill="white"/>
<path d="M1783.28 467.662L1690.78 471.825L1694.95 564.361L1787.45 560.198L1783.28 467.662Z" fill="#FFDF69"/>
<path d="M1778.81 368.529L1686.31 372.691L1690.48 465.227L1782.98 461.065L1778.81 368.529Z" fill="white"/>
<path d="M1588.69 576.196L1496.19 580.359L1500.36 672.895L1592.85 668.733L1588.69 576.196Z" fill="white"/>
<path d="M1692.63 671.353L1600.13 675.499L1604.28 768.036L1696.78 763.89L1692.63 671.353Z" fill="#FFDF69"/>
<path d="M1489.12 580.923L1396.62 585.07L1400.77 677.607L1493.27 673.46L1489.12 580.923Z" fill="white"/>
<path d="M1679.28 373.043C1679.28 373.043 1681.14 415.878 1672.73 452.65L1651.94 467.004L1576.51 470.391C1589.13 431.593 1586.8 377.201 1586.8 377.201L1679.28 373.043Z" fill="#FFDF69"/>
<path d="M1651.94 466.996L1651.33 453.29L1672.72 452.331L1651.94 466.996Z" fill="#DEBA35"/>
<path d="M1493.61 680.267C1493.61 680.267 1495.47 723.103 1487.06 759.874L1466.27 774.22L1390.84 777.608C1403.46 738.81 1401.13 684.418 1401.13 684.418L1493.61 680.267Z" fill="white"/>
<path d="M1466.27 774.22L1465.66 760.515L1487.05 759.555L1466.27 774.22Z" fill="#C9C9C9"/>
<path d="M1584.22 477.086C1584.22 477.086 1586.08 519.921 1577.67 556.693L1556.88 571.047L1481.45 574.434C1494.07 535.636 1491.74 481.244 1491.74 481.244L1584.22 477.086Z" fill="#FFDF69"/>
<path d="M1556.88 571.039L1556.27 557.333L1577.66 556.374L1556.88 571.039Z" fill="#DEBA35"/>
<path d="M1787.73 567.277C1787.73 567.277 1789.6 610.112 1781.19 646.883L1760.39 661.238L1684.97 664.625C1697.59 625.835 1695.26 571.435 1695.26 571.435L1787.73 567.277Z" fill="white"/>
<path d="M1760.39 661.23L1759.78 647.524L1781.17 646.565L1760.39 661.23Z" fill="#C9C9C9"/>
<path d="M1882.76 463.264L1790.26 467.426L1794.42 559.962L1886.92 555.8L1882.76 463.264Z" fill="white"/>
<path d="M1886.7 562.343L1794.2 566.505L1798.37 659.042L1890.87 654.879L1886.7 562.343Z" fill="#FFDF69"/>
<path d="M1982.26 458.895L1889.76 463.041L1893.91 555.578L1986.4 551.431L1982.26 458.895Z" fill="#FFDF69"/>
<path d="M1977.83 359.651L1885.33 363.813L1889.49 456.35L1981.99 452.187L1977.83 359.651Z" fill="white"/>
<path d="M1878.29 364.175C1878.29 364.175 1880.14 407.018 1871.74 443.782L1850.95 458.105L1775.52 461.5C1788.14 422.702 1785.82 368.31 1785.82 368.31L1878.29 364.175Z" fill="#FFDF69"/>
<path d="M1850.95 458.136L1850.33 444.431L1871.73 443.471L1850.95 458.136Z" fill="#DEBA35"/>
<path d="M1886.2 906.489L2026.48 900.913L2026.15 892.586L1885.87 898.163L1886.2 906.489Z" fill="#254380"/>
<path d="M1810.7 910.696L1908.21 906.82L1907.73 894.921L1810.23 898.797L1810.7 910.696Z" fill="#CCBDB7"/>
<path d="M1840.94 908.288L1877.87 906.82L1873.41 794.629L1836.48 796.097L1840.94 908.288Z" fill="#FFAA55"/>
<path d="M1537.42 942.065L2077.66 920.589L2076.81 899.052L1536.56 920.527L1537.42 942.065Z" fill="#B59074"/>
<path d="M1621.6 1318.17L1633.89 1317.68L1618.83 938.828L1606.54 939.317L1621.6 1318.17Z" fill="#706865"/>
<path d="M1713.89 855.089L2000.29 843.704C2009.25 843.348 2016.22 835.795 2015.86 826.835L2008.21 634.273C2007.85 625.312 2000.3 618.337 1991.35 618.693L1704.95 630.077C1695.99 630.433 1689.02 637.986 1689.37 646.947L1697.03 839.509C1697.39 848.469 1704.94 855.445 1713.89 855.089Z" fill="#2B4F96"/>
<path d="M1708.76 819.976L2002.62 808.294L1995.57 630.707L1701.7 642.388L1708.76 819.976Z" fill="#F5F7FF"/>
<path d="M1774.54 911.355L1774.38 907.348C1774.38 907.348 1779.02 882.216 1818.82 880.633C1858.63 879.051 1858.97 907.999 1858.97 907.999L1774.54 911.355Z" fill="#FFC655"/>
<path d="M1973.33 655.161L1891.91 658.398C1891.29 658.422 1890.69 658.201 1890.24 657.781C1889.78 657.361 1889.51 656.778 1889.49 656.16L1889.3 651.43C1889.27 650.812 1889.5 650.21 1889.92 649.756C1890.34 649.301 1890.92 649.032 1891.54 649.008L1972.96 645.771C1973.58 645.747 1974.18 645.969 1974.63 646.388C1975.09 646.808 1975.36 647.391 1975.38 648.009L1975.57 652.739C1975.6 653.357 1975.37 653.959 1974.95 654.413C1974.53 654.868 1973.95 655.137 1973.33 655.161Z" fill="#DFE1E8"/>
<path d="M1892.7 678.522L1974.14 675.285C1975.42 675.234 1976.42 674.153 1976.37 672.87L1976.18 668.132C1976.13 666.85 1975.05 665.851 1973.77 665.902L1892.33 669.14C1891.05 669.191 1890.05 670.272 1890.1 671.554L1890.29 676.292C1890.34 677.574 1891.42 678.573 1892.7 678.522Z" fill="#DFE1E8"/>
<path d="M1902.96 798.09L1973.41 795.29C1977.72 795.119 1981.09 791.478 1980.91 787.158L1977.32 696.706C1977.15 692.387 1973.51 689.024 1969.19 689.196L1898.74 691.996C1894.42 692.168 1891.06 695.809 1891.24 700.128L1894.83 790.58C1895 794.9 1898.64 798.262 1902.96 798.09Z" fill="#DFE1E8"/>
<path d="M1736.85 804.694L1865.39 799.584C1872.23 799.312 1877.55 793.549 1877.27 786.712L1872.32 662.171C1872.05 655.334 1866.29 650.011 1859.46 650.283L1730.91 655.393C1724.08 655.665 1718.76 661.428 1719.03 668.265L1723.98 792.805C1724.25 799.643 1730.01 804.965 1736.85 804.694Z" fill="#DFE1E8"/>
<path d="M1560.28 799.616C1567.96 799.309 1575.33 796.462 1581.23 791.521C1587.13 786.58 1591.22 779.823 1592.88 772.307C1594.53 764.79 1593.65 756.937 1590.37 749.975C1587.09 743.013 1581.6 737.334 1574.75 733.826C1567.9 730.318 1560.08 729.178 1552.52 730.585C1544.96 731.992 1538.07 735.866 1532.94 741.602C1527.81 747.338 1524.73 754.613 1524.17 762.289C1523.61 769.965 1525.61 777.611 1529.85 784.03C1533.15 789.026 1537.69 793.085 1543.02 795.815C1548.35 798.546 1554.29 799.855 1560.28 799.616V799.616Z" fill="#36572B"/>
<path d="M1595.48 795.089C1601.94 794.831 1608.03 792.019 1612.41 787.271C1616.79 782.524 1619.11 776.23 1618.85 769.773C1618.83 768.995 1618.76 768.219 1618.65 767.447C1618.02 762.771 1616.03 758.38 1612.95 754.808C1609.86 751.237 1605.81 748.639 1601.28 747.329C1596.74 746.019 1591.93 746.055 1587.41 747.431C1582.9 748.808 1578.89 751.466 1575.85 755.083C1572.82 758.699 1570.91 763.119 1570.34 767.805C1569.77 772.49 1570.57 777.24 1572.65 781.477C1574.73 785.714 1578 789.256 1582.05 791.673C1586.1 794.089 1590.77 795.276 1595.48 795.089V795.089Z" fill="#45613C"/>
<path d="M1558.4 766.669C1558.4 766.669 1557.1 782.908 1557.33 804.914C1557.56 826.92 1575 826.226 1575 826.226L1578.2 906.737L1590.31 906.255C1590.31 906.255 1586.76 824.141 1592.53 817.291C1598.3 810.442 1597.06 779.126 1597.06 779.126L1593.53 777.252C1593.53 777.252 1600.17 814.11 1576.84 820.506C1553.51 826.902 1560.08 768.22 1560.08 768.22L1558.4 766.669Z" fill="#925E2E"/>
<path d="M1550.5 770.763C1570.32 766.234 1583.12 757.074 1589.93 749.033C1587.8 744.771 1584.82 740.99 1581.18 737.926C1577.53 734.861 1573.3 732.576 1568.74 731.214C1564.17 729.851 1559.38 729.439 1554.65 730.003C1549.92 730.567 1545.36 732.096 1541.25 734.494C1537.13 736.892 1533.56 740.108 1530.73 743.945C1527.91 747.782 1525.91 752.157 1524.84 756.799C1523.78 761.442 1523.68 766.254 1524.54 770.937C1525.41 775.621 1527.23 780.077 1529.89 784.029C1530.62 779.255 1535.6 774.156 1550.5 770.763Z" fill="#48753A"/>
<path d="M1601.88 777.138C1609.86 774.487 1615.2 771.077 1618.65 767.471C1618.1 763.385 1616.52 759.506 1614.06 756.197C1611.6 752.887 1608.35 750.255 1604.6 748.547C1600.85 746.839 1596.73 746.11 1592.62 746.43C1588.51 746.75 1584.55 748.107 1581.11 750.374C1577.67 752.642 1574.86 755.746 1572.94 759.396C1571.02 763.046 1570.07 767.122 1570.15 771.244C1570.24 775.365 1571.37 779.397 1573.44 782.962C1575.51 786.527 1578.45 789.508 1581.99 791.627C1584.27 786.869 1589.64 781.211 1601.88 777.138Z" fill="#538742"/>
<path d="M1619.21 867.62L1537.35 870.874L1542.17 885.898L1614.74 883.013L1619.21 867.62Z" fill="#877670"/>
<path d="M1609.58 883.218L1548.83 885.633L1558.63 919.673L1605.04 917.828L1609.58 883.218Z" fill="#876455"/>
<path d="M1595.87 749.356L1598 749.918C1598 749.918 1600.94 740.808 1601.11 739.58C1601.28 738.352 1595.87 749.356 1595.87 749.356Z" fill="#538742"/>
<path d="M1615.73 749.213L1605.47 752.787C1605.47 752.787 1605.57 753.716 1606.94 753.662C1608.31 753.607 1615.73 749.213 1615.73 749.213Z" fill="#538742"/>
<path d="M1613.01 771.195L1610.35 771.301C1610.35 771.301 1611.01 775.235 1613.27 777.657C1615.52 780.08 1613.01 771.195 1613.01 771.195Z" fill="#538742"/>
<path d="M1547.12 723.881C1546.08 724.7 1551.43 736.444 1551.43 736.444L1553.87 736.347C1553.87 736.347 1548.17 723.054 1547.12 723.881Z" fill="#48753A"/>
<path d="M1558.86 733.201C1559.15 729.953 1556.43 724.592 1556.43 724.592L1556.76 732.778C1556.76 732.778 1558.55 736.449 1558.86 733.201Z" fill="#48753A"/>
<path d="M1541.48 780.954C1542.93 779.66 1542.55 768.815 1542.55 768.815L1540.21 769.772C1540.21 769.772 1540.02 782.249 1541.48 780.954Z" fill="#48753A"/>
<path d="M1589.45 884.018L1548.83 885.633L1558.63 919.673L1571.94 919.144C1563.32 891.786 1589.45 884.018 1589.45 884.018Z" fill="#715346"/>
<path d="M1560.78 919.588C1564.06 918.065 1568.81 902.108 1571.08 893.857C1571.88 890.924 1572.37 888.968 1572.37 888.968L1541.88 890.18C1545.27 908.893 1552.12 919.932 1552.12 919.932L1560.78 919.588Z" fill="#9E633A"/>
<path d="M1561.64 879.997C1561.6 878.902 1566.32 874.125 1568.64 871.03C1570.97 867.934 1567.35 862.392 1567.35 862.392C1556.62 867.346 1559.01 880.102 1559.01 880.102C1559.01 880.102 1561.69 881.115 1561.64 879.997Z" fill="#97A43C"/>
<path d="M1555.46 880.733L1556.77 880.681C1556.77 880.681 1556.84 858.477 1548.62 855.785C1540.4 853.094 1540.17 847.074 1540.17 847.074C1540.17 847.074 1538.05 855.451 1542.18 859.62C1546.3 863.789 1551.02 868.696 1550.43 872.866C1549.85 877.036 1555.46 880.733 1555.46 880.733Z" fill="#97A43C"/>
<path d="M1571.07 893.858C1571.87 890.924 1572.36 888.968 1572.36 888.968L1541.88 890.18C1545.27 908.893 1552.12 919.932 1552.12 919.932L1554.11 919.853C1553.03 902.245 1564.4 895.998 1571.07 893.858Z" fill="#82522F"/>
<path d="M1571.99 879.586L1541.29 880.806L1539.91 890.258L1573.61 888.919L1571.99 879.586Z" fill="#C67B47"/>
<path d="M1653.26 1292.5L1575.47 1295.6L1574.06 1260.33L1651.85 1257.24C1654.32 1257.14 1656.71 1258.03 1658.52 1259.7C1660.33 1261.37 1661.4 1263.69 1661.5 1266.15L1662.17 1282.85C1662.25 1285.31 1661.37 1287.71 1659.7 1289.51C1658.03 1291.32 1655.71 1292.4 1653.26 1292.5V1292.5Z" fill="url(#paint0_linear)"/>
<path d="M1560.27 1264.52L1561.38 1292.48L1559.96 1292.54L1560.1 1296.17L1615.57 1293.96C1618.03 1293.85 1620.35 1292.77 1622.02 1290.96C1623.69 1289.14 1624.58 1286.74 1624.48 1284.27L1623.81 1267.58C1623.72 1265.11 1622.65 1262.78 1620.84 1261.11C1619.03 1259.43 1616.63 1258.54 1614.17 1258.62L1558.69 1260.83L1558.84 1264.46L1560.27 1264.52Z" fill="#FF9F55"/>
<path d="M1610.43 1290.57L1561.39 1292.52L1560.27 1264.52L1609.32 1262.57C1611.76 1262.48 1614.14 1263.35 1615.93 1265.01C1617.73 1266.66 1618.8 1268.96 1618.9 1271.4L1619.28 1280.96C1619.33 1282.17 1619.15 1283.38 1618.73 1284.52C1618.31 1285.66 1617.67 1286.71 1616.85 1287.6C1616.03 1288.5 1615.04 1289.22 1613.93 1289.73C1612.83 1290.24 1611.64 1290.52 1610.43 1290.57Z" fill="#EFF7FE"/>
<path d="M1548.42 1226.03L1630.91 1222.75L1632.31 1258.01L1549.83 1261.29C1547.24 1261.39 1544.72 1260.46 1542.82 1258.71C1540.92 1256.95 1539.79 1254.51 1539.69 1251.92L1539.06 1236.18C1539.01 1234.9 1539.21 1233.62 1539.65 1232.41C1540.09 1231.21 1540.77 1230.11 1541.64 1229.16C1542.51 1228.22 1543.56 1227.46 1544.72 1226.92C1545.88 1226.38 1547.14 1226.08 1548.42 1226.03V1226.03Z" fill="url(#paint1_linear)"/>
<path d="M1645.82 1225.8L1646.93 1253.76L1648.44 1253.7L1648.58 1257.33L1589.75 1259.66C1587.17 1259.77 1584.64 1258.84 1582.74 1257.08C1580.84 1255.32 1579.72 1252.88 1579.61 1250.3L1578.99 1234.55C1578.88 1231.97 1579.81 1229.44 1581.57 1227.54C1583.32 1225.64 1585.76 1224.51 1588.35 1224.4L1647.18 1222.06L1647.33 1225.7L1645.82 1225.8Z" fill="#5284FC"/>
<path d="M1593.57 1227.88L1645.82 1225.8L1646.93 1253.8L1594.69 1255.87C1592.11 1255.98 1589.6 1255.05 1587.71 1253.3C1585.81 1251.55 1584.69 1249.12 1584.59 1246.54L1584.25 1238C1584.19 1236.72 1584.39 1235.45 1584.83 1234.25C1585.27 1233.05 1585.95 1231.94 1586.81 1231C1587.68 1230.06 1588.72 1229.3 1589.88 1228.76C1591.04 1228.23 1592.3 1227.93 1593.57 1227.88V1227.88Z" fill="#EFF7FE"/>
<path d="M1566.93 1198.56L1653.11 1195.14L1654.17 1221.82L1568 1225.24C1567.2 1225.28 1566.41 1225.15 1565.66 1224.87C1564.91 1224.6 1564.23 1224.18 1563.64 1223.64C1563.06 1223.1 1562.59 1222.45 1562.25 1221.73C1561.92 1221 1561.73 1220.22 1561.7 1219.43L1561.12 1204.86C1561.06 1203.25 1561.64 1201.69 1562.73 1200.51C1563.82 1199.33 1565.33 1198.63 1566.93 1198.56V1198.56Z" fill="url(#paint2_linear)"/>
<path d="M1667.99 1197.29L1668.84 1218.49L1670.34 1218.43L1670.45 1221.17L1607.92 1223.66C1606.32 1223.72 1604.75 1223.14 1603.57 1222.05C1602.39 1220.97 1601.69 1219.45 1601.63 1217.85L1601.05 1203.27C1600.99 1201.66 1601.56 1200.1 1602.65 1198.92C1603.74 1197.74 1605.26 1197.04 1606.86 1196.98L1669.39 1194.49L1669.5 1197.23L1667.99 1197.29Z" fill="#5284FC"/>
<path d="M1611.56 1199.54L1667.99 1197.29L1668.83 1218.48L1612.4 1220.72C1610.8 1220.79 1609.23 1220.21 1608.05 1219.12C1606.87 1218.03 1606.17 1216.51 1606.11 1214.91L1605.75 1205.83C1605.68 1204.22 1606.26 1202.66 1607.35 1201.48C1608.44 1200.3 1609.96 1199.6 1611.56 1199.54V1199.54Z" fill="#EFF7FE"/>
<path d="M1917.77 673.714L1901.99 740.463C1901.45 742.631 1900.8 745.294 1900.12 748.394L1900.13 748.51L1900.13 748.588C1896.51 765.014 1894.49 781.752 1894.1 798.567C1893.86 812.19 1898.57 866.728 1898.57 866.728C1898.57 866.728 1871.13 878.227 1829.36 877.259C1829.36 877.259 1789.67 887.876 1792.23 860.244C1799.01 787.092 1783.19 747.581 1781.63 740.331C1781.63 740.331 1774.15 705.234 1768.61 675.792C1781.04 670.631 1834.19 650.33 1834.19 650.33L1862.14 651.359C1862.14 651.359 1904.96 660.104 1917.77 673.714Z" fill="#D44040"/>
<path d="M1844.43 556.443C1844.43 556.443 1871.85 559.958 1868.92 602.805C1865.99 645.651 1841.81 642.848 1840.19 642.842C1838.57 642.836 1816.02 644.316 1812.76 592.202C1812.76 592.209 1810.88 553.653 1844.43 556.443Z" fill="#EEA987"/>
<path d="M1859.29 629.691C1859.29 629.691 1859.05 647.289 1860.86 651.036C1862.68 654.784 1839.62 667.82 1824.46 654.63C1824.46 654.63 1826.65 635.321 1825.46 628.577C1824.27 621.834 1859.29 629.691 1859.29 629.691Z" fill="#EEA987"/>
<path d="M1869 590.728C1869 590.728 1871.9 587.447 1873.09 590.644C1874.28 593.84 1868.96 608.466 1869.35 609.104C1869.35 609.104 1868.84 610.369 1868.11 609.698C1867.37 609.027 1869 590.728 1869 590.728Z" fill="#EEA987"/>
<path d="M1813.07 591.793C1813.07 591.793 1810.04 588.63 1808.98 591.877C1807.92 595.124 1812.84 609.305 1813.42 610.168C1813.42 610.168 1814.41 611.607 1815.12 610.878C1815.83 610.15 1813.07 591.793 1813.07 591.793Z" fill="#EEA987"/>
<path d="M1870.6 587.032C1869.89 592.902 1869.18 597.279 1869.18 597.279L1865.43 602.617C1865.43 602.617 1865.22 591.151 1864.54 589.381C1864.28 588.707 1863.96 587.506 1863.64 586.212C1863.1 584.071 1862.54 581.65 1862.19 580.824C1861.62 579.548 1838.52 573.784 1818.55 583.959C1818.55 583.959 1818.8 585.715 1818.86 587.681C1818.95 589.964 1818.8 592.537 1817.76 592.967C1815.84 593.759 1817.16 606.418 1817.16 606.418L1813.84 602.878C1813.84 602.878 1812.66 596.289 1811.46 588.706C1811.45 588.688 1811.45 588.67 1811.46 588.652C1811.18 586.881 1810.9 585.064 1810.63 583.239C1809.86 575.592 1810.07 561.651 1819.72 553.076C1826.34 549.927 1836.99 547.046 1855.12 551.825C1855.12 551.825 1859.24 551.933 1860.44 552.998C1872.06 564.889 1870.6 587.032 1870.6 587.032Z" fill="#252E3B"/>
<path d="M1827.69 637.637C1827.69 637.637 1832.28 643.507 1842.37 642.872C1852.46 642.238 1856.63 636.797 1856.63 636.797C1856.63 636.797 1852.25 646.999 1842.49 647.278C1832.74 647.557 1827.69 637.637 1827.69 637.637Z" fill="#C78D71"/>
<path d="M1821.69 655.129C1821.69 655.129 1829.49 668.713 1843.4 668.199C1857.3 667.685 1862.35 657.457 1862.72 651.468C1855.98 649.334 1848.88 648.56 1841.84 649.188C1834.8 649.817 1827.95 651.836 1821.69 655.129V655.129Z" fill="#EEA987"/>
<path d="M1892.51 800.147C1892.51 800.147 1889.49 814.161 1904.91 818.682C1904.91 818.682 1961.43 775.206 1961.84 769.247C1962.21 763.716 1927.03 677.99 1915.18 671.358L1905.76 722.032C1907.13 721.573 1928.04 750.559 1928.37 756.637C1928.83 764.779 1892.51 800.147 1892.51 800.147Z" fill="#D44040"/>
<path d="M1798.15 807.461C1798.15 807.461 1802.27 821.198 1787.21 826.923C1787.21 826.923 1716.59 777.533 1715.72 771.609C1714.91 766.126 1757.22 683.386 1768.53 675.827L1782.83 728.98C1781.42 728.632 1756.67 760.203 1756.83 766.288C1757.06 774.439 1798.15 807.461 1798.15 807.461Z" fill="#D44040"/>
<path d="M1758.89 1105.15C1753.87 1110.18 1749.45 1115.79 1745.74 1121.86C1739.61 1131.91 1722.31 1133.12 1722.1 1146.52C1721.9 1159.91 1746.2 1159.35 1758.77 1154.49C1771.35 1149.64 1772.76 1136.5 1780.34 1132.94C1787.92 1129.37 1791.82 1126.57 1790.98 1120.21C1790.13 1113.86 1785.45 1103.69 1785.45 1103.69C1783 1104.59 1780.48 1105.31 1777.92 1105.84C1775.11 1106.26 1765.64 1106.75 1758.89 1105.15Z" fill="#3F446E"/>
<path d="M1938.04 1090.05C1938.04 1090.05 1945.03 1097.19 1949.16 1101.52C1953.29 1105.85 1968.77 1113.26 1969.38 1126.59C1970.04 1141.03 1958.73 1140.24 1948.68 1140.08C1938.62 1139.93 1930.21 1133.35 1925.66 1125.34C1921.12 1117.33 1909.8 1115.62 1908.75 1109.05C1907.7 1102.48 1913.22 1090.37 1913.22 1090.37L1938.04 1090.05Z" fill="#3F446E"/>
<path d="M1914.03 1078.02L1913.22 1090.4C1913.22 1090.4 1934.54 1098.69 1938.04 1090.08L1936.71 1079.17L1914.03 1078.02Z" fill="#EEA886"/>
<path d="M1759.68 1096.2L1758.89 1105.15C1767.68 1107.42 1776.96 1106.92 1785.45 1103.69L1785.42 1095.77L1759.68 1096.2Z" fill="#EEA886"/>
<path d="M1907.7 860.36C1907.7 860.36 1949.7 891.969 1950.69 910.335C1951.67 928.701 1946.66 979.924 1946.54 990.041C1946.42 1000.16 1940.28 1084.66 1940.28 1084.66C1940.28 1084.66 1933.23 1091.77 1910.9 1084.1C1910.9 1084.1 1902.88 1004.53 1902.02 996.012C1901.16 987.497 1899.59 948.158 1894.45 942.637C1889.31 937.116 1858.86 920.466 1854.84 917.257C1850.83 914.048 1783.87 932.875 1776.86 934.989C1758.71 940.479 1768.34 972.076 1772.97 986.221C1780.71 1009.9 1790.07 1096.14 1790.07 1096.14C1790.07 1096.14 1777.24 1102.22 1755.17 1098.39C1755.17 1098.39 1706 943.982 1704 928.504C1702 913.025 1697.78 890.268 1802.89 866.596L1907.7 860.36Z" fill="#292C47"/>
<path d="M1849.64 744.979L1830.25 745.749L1834.94 863.657L1854.32 862.886L1849.64 744.979Z" fill="#D4C1BB"/>
<path d="M1928.35 729.318L1933.11 849.144L1854.49 867.135L1849.64 744.987L1925.85 727.535L1928.35 729.318Z" fill="#D4C1BB"/>
<path d="M1849.64 744.979L1830.25 745.749L1835.11 867.905L1854.49 867.135L1849.64 744.979Z" fill="#D4C1BB"/>
<path d="M1933.38 855.784L1854.78 874.304L1849.75 747.837L1928.35 729.318L1933.38 855.784Z" fill="#D44040"/>
<path d="M1750.58 736.384L1755.34 856.21L1835.15 867.904L1830.29 745.756L1752.94 734.408L1750.58 736.384Z" fill="#D4C1BB"/>
<path d="M1755.61 862.851L1835.43 875.072L1830.4 748.606L1750.58 736.384L1755.61 862.851Z" fill="#548AD1"/>
<path d="M1849.75 747.837L1830.36 748.608L1835.39 875.074L1854.78 874.303L1849.75 747.837Z" fill="#426CA3"/>
<path d="M1760.23 774.336C1760.23 774.336 1744.91 775.171 1742.29 783.427C1739.68 791.683 1742.1 800.65 1744.44 804.43C1746.79 808.211 1753.59 817.735 1757.82 814.144C1771.38 802.629 1760.23 774.336 1760.23 774.336Z" fill="#EEA886"/>
<path d="M1746.07 778.617C1746.07 778.617 1745.26 768.327 1749.63 768.853C1754 769.38 1752.34 776.812 1752.34 776.812L1746.07 778.617Z" fill="#EEA886"/>
<path d="M1841.6 746.185L1904.12 716.52L1908.33 717.683L1845.95 747.568L1841.6 746.185Z" fill="#D4C1BB"/>
<path d="M1908.33 717.683L1908.92 732.37L1849.67 745.787L1908.33 717.683Z" fill="#BDABA6"/>
<path d="M1928.35 729.318L1933.11 849.144L1854.49 867.135L1849.64 744.987L1925.85 727.535L1928.35 729.318Z" fill="#D4C1BB"/>
<path d="M1933.38 855.784L1854.78 874.304L1849.75 747.837L1928.35 729.318L1933.38 855.784Z" fill="#548AD1"/>
<path d="M1909.71 804.442L1877.03 812.353L1875.8 781.38L1908.48 773.468L1909.71 804.442Z" fill="#5F9DED"/>
<path d="M1921.97 767.02C1921.97 767.02 1937.27 765.782 1940.97 773.608C1944.67 781.435 1943.47 790.623 1941.66 794.716C1939.85 798.81 1934.39 809.124 1929.72 806.144C1914.73 796.557 1921.97 767.02 1921.97 767.02Z" fill="#EEA886"/>
<path d="M1758.83 735.27C1758.83 735.27 1789.49 723.939 1836.9 745.485L1828.64 747.532L1758.83 735.27Z" fill="#D4C1BB"/>
<path d="M1855.09 551.872C1855.09 551.872 1865.26 548.948 1868.92 558.215C1874.55 572.429 1869.18 597.279 1869.18 597.279L1855.09 551.872Z" fill="#252E3B"/>
</g>
<defs>
<linearGradient id="paint0_linear" x1="33061.8" y1="48034.1" x2="33012.2" y2="46788" gradientUnits="userSpaceOnUse">
<stop stop-color="#FF9F55"/>
<stop offset="1" stop-color="#FFD255"/>
</linearGradient>
<linearGradient id="paint1_linear" x1="30918.8" y1="44728" x2="30974.5" y2="46128.2" gradientUnits="userSpaceOnUse">
<stop stop-color="#40D5E6"/>
<stop offset="1" stop-color="#5577FF"/>
</linearGradient>
<linearGradient id="paint2_linear" x1="33250.6" y1="33213.1" x2="33284.3" y2="34060.4" gradientUnits="userSpaceOnUse">
<stop stop-color="#40D5E6"/>
<stop offset="1" stop-color="#5577FF"/>
</linearGradient>
<clipPath id="clip0">
<rect width="1920" height="1282" fill="white"/>
</clipPath>
</defs>
</svg>
