<svg width="510" height="440" viewBox="0 0 510 440" fill="none" xmlns="http://www.w3.org/2000/svg">
<g clip-path="url(#clip0)">
<path fill-rule="evenodd" clip-rule="evenodd" d="M247.369 35.626C288.336 32.5673 333.455 40.2566 362.897 68.9164C391.201 96.4674 384.024 142.039 395.518 179.836C406.698 216.599 438.792 249.89 429.251 287.113C419.614 324.712 379.426 343.796 347.748 366.207C316.516 388.302 285.498 418.848 247.369 415.787C209.788 412.77 181.58 380.449 158.05 350.979C138.997 327.115 134.32 296.635 128.325 266.688C123.069 240.433 123.233 215.057 125.498 188.377C128.524 152.731 121.418 113.241 143.726 85.2806C168.221 54.5791 208.212 38.5497 247.369 35.626Z" fill="#E37474"/>
<path fill-rule="evenodd" clip-rule="evenodd" d="M247.355 48.7211C286.295 40.4572 335.383 40.4488 361.849 70.2275C388.606 100.334 359.242 149.283 370.994 187.833C382.372 225.159 437.502 249.004 427.878 286.822C418.419 323.995 366.463 328.592 331.304 343.804C304.152 355.551 276.912 365.98 247.355 364.926C218.624 363.902 190.533 355.386 167.639 337.969C145.081 320.808 129.554 296.236 121.36 269.076C113.293 242.339 114.957 214.312 122.193 187.337C129.772 159.088 143.82 134.036 163.409 112.341C187.536 85.6203 212.167 56.1889 247.355 48.7211Z" fill="#72CC9B"/>
<path fill-rule="evenodd" clip-rule="evenodd" d="M247.338 65.9647C280.089 70.6898 309.762 86.5636 334.066 108.981C356.264 129.456 365.79 158.096 377.413 185.945C390.232 216.663 413.759 247.165 405.151 279.313C396.463 311.756 363.656 331.252 334.173 347.428C307.587 362.014 277.661 366.799 247.338 365.894C217.821 365.012 189.703 357.206 164.198 342.352C136.25 326.077 109.53 306.461 95.3967 277.409C79.9243 245.603 74.7747 209.191 82.649 174.719C91.0151 138.094 108.87 101.746 140.257 81.0195C171.073 60.6694 210.768 60.6886 247.338 65.9647Z" fill="white"/>
<g clip-path="url(#clip1)">
<path opacity="0.13" d="M342.759 309.049C345.501 309.715 348.806 311.833 347.818 314.455C347.427 315.224 346.835 315.872 346.105 316.331C341.739 319.258 336.832 321.282 331.673 322.282C321.323 324.459 310.801 325.721 300.23 326.055C279.55 327.245 258.83 327.83 238.129 328.415L217.449 329C215.01 329 211.805 328.516 211.402 326.095C210.919 322.706 217.066 320.043 215.151 317.219C214.723 316.761 214.194 316.41 213.606 316.193C213.018 315.976 212.388 315.899 211.765 315.968C206.343 315.766 200.921 316.23 195.519 316.432C186.16 316.796 176.786 316.432 167.482 315.343C166.546 315.365 165.616 315.184 164.756 314.811C163.896 314.438 163.128 313.883 162.504 313.184C160.73 310.501 163.491 307.132 166.212 305.418C177.097 298.498 190.521 297.349 203.34 295.957C235.287 292.547 267.839 286.879 299.222 293.415C300.875 293.738 302.891 294.565 302.891 296.239C302.852 296.889 302.597 297.507 302.165 297.994C300.745 299.494 299.065 300.724 297.207 301.625C294.768 303.118 290.777 307.677 295.05 309.473C298.275 310.784 305.632 308.222 309.038 307.859C320.305 306.689 331.754 306.346 342.759 309.049Z" fill="#353A4D"/>
<path d="M178.891 174.758C178.122 175.103 177.326 175.386 176.512 175.605C175.477 175.962 174.373 176.072 173.287 175.928C172.655 175.774 172.075 175.453 171.609 174.998C171.143 174.543 170.808 173.971 170.639 173.342C170.47 172.712 170.473 172.049 170.648 171.422C170.823 170.794 171.164 170.225 171.635 169.775C172.737 168.928 174.009 168.329 175.363 168.02C178.582 166.954 181.537 165.214 184.031 162.916C184.625 162.316 185.304 161.806 186.046 161.403C188.203 160.415 189.956 162.392 189.412 164.651C188.396 167.408 186.569 169.792 184.172 171.49C182.584 172.836 180.804 173.938 178.891 174.758V174.758Z" fill="#D4B25D"/>
<path d="M172.582 151.478C171.816 151.567 171.06 151.729 170.324 151.962C169.679 166.265 180.604 310.179 180.604 310.179H184.635L172.582 151.478Z" fill="#E37474"/>
<path d="M234.562 107.522C234.394 106.859 234.002 106.274 233.453 105.867C232.831 105.553 232.12 105.461 231.438 105.605C229.642 105.811 227.927 106.461 226.445 107.497C224.964 108.532 223.763 109.92 222.952 111.536C221.843 113.331 220.936 115.329 219.727 117.265C212.874 128.461 208.923 141.997 198.281 150.248C192.622 154.788 186.721 159.017 180.604 162.916C182.62 166.063 183.063 169.574 184.635 173.003C192.007 169.857 199.106 166.106 205.86 161.787C209.696 159.542 213.289 156.906 216.583 153.919C222.809 147.613 227.529 139.979 230.389 131.588C233.131 124.427 237.202 115.248 234.562 107.522Z" fill="#C75656"/>
<path d="M267.86 152.467C270.559 150.573 272.467 147.751 273.221 144.539C273.94 141.357 274.258 138.097 274.168 134.836C274.168 131.124 274.168 127.432 273.926 123.741C273.47 120.309 272.384 116.992 270.722 113.957C269.874 112.088 268.883 110.287 267.759 108.571C265.648 105.437 262.901 102.784 259.696 100.784C255.805 98.3189 251.257 97.0949 246.655 97.2737C243.501 97.4277 240.443 98.4086 237.787 100.118C234.904 101.994 234.884 103.85 234.219 107.017C232.553 114.715 232.948 122.717 235.366 130.213C237.783 137.709 242.137 144.433 247.986 149.703C253.085 154.303 261.651 156.441 267.86 152.467Z" fill="#353A4D"/>
<path d="M192.516 301.605C190.405 302.327 188.662 303.848 187.658 305.841C187.598 306.066 187.598 306.303 187.658 306.527C187.747 306.832 187.949 307.092 188.223 307.254C189.708 308.116 191.451 308.423 193.141 308.121C197.353 307.798 208.036 308.262 210.576 304.893C211.593 302.608 212.311 300.201 212.712 297.732C213.429 295.143 213.795 292.47 213.801 289.784C213.867 289.187 213.701 288.587 213.337 288.11C212.977 287.799 212.537 287.597 212.067 287.524C211.203 287.326 210.328 287.178 209.447 287.081C208.771 286.957 208.074 287.02 207.431 287.262C206.849 287.616 206.385 288.136 206.101 288.755C204.71 291.156 203.703 293.798 202.07 296.058C199.49 299.548 196.104 299.85 192.516 301.605Z" fill="#353A4D"/>
<path d="M236.759 164.934C234.3 161.787 227.971 161 224.665 161.747C222.675 162.26 220.807 163.163 219.167 164.402C217.528 165.642 216.149 167.194 215.111 168.968C213.104 172.548 211.65 176.411 210.798 180.427C206.085 198.971 203.628 218.018 203.481 237.153C203.3 256.6 202.191 275.945 201.203 295.352C202.997 295.352 204.811 295.493 206.605 295.634C210.203 295.602 213.799 295.811 217.369 296.259C224.181 270.021 229.912 243.494 234.562 216.677C236.811 205.239 238.105 193.633 238.432 181.98C238.432 177.723 239.46 168.928 236.94 165.156L236.759 164.934Z" fill="#2789BA"/>
<path d="M272.052 296.683C268.918 299.045 266.194 301.908 263.99 305.156C263.575 305.712 263.286 306.352 263.143 307.032C263.098 307.388 263.15 307.75 263.291 308.08C263.433 308.409 263.66 308.695 263.949 308.908C264.599 309.154 265.316 309.154 265.965 308.908C272.254 307.603 278.15 304.839 283.178 300.839C283.481 300.624 283.73 300.34 283.904 300.012C284.025 299.597 284.025 299.156 283.904 298.741C283.08 295.141 281.604 291.722 279.55 288.654C279.43 288.393 279.233 288.175 278.986 288.029C278.814 287.955 278.629 287.916 278.442 287.916C278.254 287.916 278.069 287.955 277.897 288.029C276.285 288.634 273.1 289.481 272.334 291.136C271.568 292.79 273.906 295.271 272.052 296.683Z" fill="#353A4D"/>
<path d="M270.601 297.268C270.601 297.127 275.781 294.645 276.123 294.464C280.276 292.447 281.344 292.447 281.525 288.19C281.828 280.706 274.592 268.844 271.064 262.187C266.005 252.625 258.971 243.043 256.512 232.513C254.153 222.285 257.56 212.34 259.636 202.536C262.236 190.19 263.345 174.98 260.039 162.351C257.721 153.496 249.961 143.752 240.911 150.893C224.786 163.562 229.724 195.193 230.127 213.349C229.996 221.162 230.911 228.957 232.848 236.527C235.454 244.339 239.189 251.727 243.934 258.455C248.61 265.637 253.623 272.603 258.971 279.354C263.183 285.1 267.066 291.081 270.601 297.268V297.268Z" fill="#46A4D4"/>
<path d="M284.73 146.778C286.141 154.968 285.355 164.127 284.972 171.47C284.907 174.106 284.617 176.731 284.105 179.317C283.982 180.319 283.503 181.243 282.755 181.919C282.01 182.297 281.148 182.366 280.352 182.114C279.557 181.861 278.892 181.306 278.502 180.568C277.78 179.053 277.448 177.382 277.534 175.706C276.996 165.287 273.699 155.199 267.98 146.476C266.632 144.254 265.065 142.173 263.304 140.262C261.955 139.132 260.411 138.257 258.749 137.68C254.394 134.971 250.752 131.256 248.127 126.847C246.671 124.665 245.499 122.306 244.64 119.827C244.228 118.685 243.944 117.501 243.793 116.297C243.841 115.246 243.704 114.194 243.39 113.19C242.936 112.073 242.677 110.885 242.624 109.68C242.52 109.099 242.556 108.502 242.727 107.937C242.899 107.373 243.202 106.857 243.612 106.432C243.947 106.186 244.33 106.014 244.737 105.927C245.143 105.84 245.564 105.841 245.97 105.928C246.788 106.108 247.571 106.422 248.288 106.856C254.462 110.324 260.252 114.435 265.562 119.121C270.872 123.712 275.676 128.859 279.893 134.473C282.45 138.136 284.107 142.353 284.73 146.778V146.778Z" fill="#E37474"/>
<path d="M258.447 171.692L212.088 174.052C212.571 168.464 213.075 162.876 213.559 157.309C214.627 145.205 215.736 132.758 220.049 121.3C221.682 117.023 221.642 111.698 224.867 108.45C226.858 106.807 229.171 105.6 231.656 104.905C234.142 104.21 236.745 104.043 239.298 104.415C251.069 106.432 249.598 108.631 252.42 113.372C255.001 118.27 256.68 123.593 257.378 129.087C259.366 140.352 260.712 151.721 261.409 163.138C261.772 166.951 263.163 171.45 258.447 171.692Z" fill="#E37474"/>
<path d="M175.928 168.968C175.663 168.509 175.289 168.121 174.839 167.839C174.098 167.466 173.251 167.36 172.441 167.536C171.406 167.692 170.429 168.114 169.606 168.761C168.782 169.408 168.141 170.258 167.744 171.228C166.051 176.614 175.908 177.824 176.734 173.245C176.845 172.451 176.804 171.643 176.613 170.865C176.484 170.201 176.253 169.561 175.928 168.968V168.968Z" fill="#EBCB7A"/>
<path d="M260.341 142.844C259.817 142.441 259.233 142.138 258.688 141.795L258.527 141.634C258.144 141.15 257.882 140.545 257.298 140.262C253.351 136.04 250.657 130.801 249.517 125.133C248.248 117.467 250.727 110.648 254.113 103.89C254.436 103.225 253.569 102.438 253.004 103.043C242.926 114.199 245.083 134.775 257.136 143.792L257.378 143.914C257.991 144.442 258.725 144.809 259.515 144.983C259.781 145.028 260.054 144.979 260.288 144.846C260.522 144.713 260.703 144.503 260.8 144.251C260.897 144 260.905 143.722 260.821 143.466C260.738 143.21 260.568 142.99 260.341 142.844V142.844Z" fill="#353A4D"/>
<path d="M226.781 107.199C226.231 107.332 225.701 107.543 225.209 107.824C221.178 112.787 220.674 119.302 219.162 125.354C218.139 129.337 217.364 133.379 216.844 137.458C218.142 135.578 219.205 133.545 220.009 131.406C220.923 127.452 221.883 123.512 222.891 119.585C223.693 115.71 225.022 111.963 226.842 108.449C226.954 108.257 227.007 108.037 226.997 107.815C226.986 107.593 226.911 107.379 226.781 107.199V107.199Z" fill="#353A4D"/>
<path d="M238.855 91.6254C239.399 88.1759 240.729 84.8675 239.278 81.539C236.436 74.9626 226.439 74.0145 222.609 80.026C221.231 82.0403 220.454 84.4052 220.369 86.8448C220.283 89.2844 220.892 91.698 222.125 93.8041C224.443 97.1932 227.164 98.9886 228.172 103.265C228.636 105.383 228.817 107.582 229.281 109.721C229.426 110.692 229.747 111.628 230.228 112.484C231.276 114.058 232.486 114.058 234.159 113.917C237.041 113.674 239.581 112.847 240.205 109.62C240.392 108.275 240.33 106.908 240.024 105.585C239.031 101.491 238.551 97.2902 238.593 93.0779C238.687 92.5668 238.774 92.0827 238.855 91.6254Z" fill="#EBCB7A"/>
<path d="M241.193 76.7379C241.417 76.581 241.632 76.4127 241.838 76.2336C242.735 75.515 243.317 74.4763 243.464 73.3362C243.611 72.1961 243.31 71.0435 242.624 70.1212C241.469 68.8168 239.847 68.0197 238.109 67.9021C237.628 67.8318 237.139 67.8318 236.658 67.9021H235.63C233.614 68.2047 230.531 69.3546 230.793 71.9367C230.84 72.4707 231.005 72.9876 231.276 73.4497H231.115C229.809 73.2495 228.473 73.4984 227.326 74.1557C226.684 74.3258 226.057 74.5484 225.451 74.8214C224.759 75.0292 224.03 75.0842 223.315 74.9828C222.333 74.6718 221.279 74.6757 220.299 74.994C219.32 75.3123 218.464 75.9291 217.852 76.758C215.534 80.2076 218.316 83.4756 221.622 83.7984C222.179 84.1543 222.836 84.3239 223.496 84.2825C226.802 84.1817 229.14 81.0145 232.889 82.2653L233.131 82.3661C234.376 83.7585 235.359 85.3645 236.033 87.1067C236.94 89.124 237.021 92.8762 239.641 93.7033C239.839 93.7607 240.049 93.7629 240.248 93.7096C240.447 93.6562 240.627 93.5494 240.77 93.4007C241.309 92.7555 241.726 92.0172 241.999 91.222C244.418 86.5419 244.781 80.7926 241.193 76.7379Z" fill="#46A4D4"/>
<path d="M238.129 86.6426C237.827 86.3323 237.439 86.1183 237.016 86.0278C236.592 85.9372 236.151 85.974 235.748 86.1335C235.346 86.293 234.999 86.5682 234.752 86.9244C234.505 87.2806 234.369 87.7019 234.36 88.1354L234.098 88.2363C233.904 88.341 233.747 88.5021 233.647 88.6983C233.546 88.8945 233.508 89.1165 233.536 89.3351C233.565 89.5536 233.659 89.7584 233.806 89.9224C233.953 90.0864 234.146 90.2018 234.36 90.2535C236.134 90.8184 239.883 88.7204 238.129 86.6426Z" fill="#EBCB7A"/>
<path d="M228.273 92.4928C228.06 92.8411 227.718 93.0915 227.322 93.1896C226.926 93.2878 226.507 93.2259 226.156 93.0173C225.713 92.755 225.451 92.3516 224.967 92.17C224.915 92.1587 224.86 92.1608 224.808 92.176C224.757 92.1913 224.71 92.2193 224.672 92.2574C224.634 92.2955 224.606 92.3425 224.59 92.3942C224.575 92.4459 224.573 92.5006 224.584 92.5533C224.867 94.4092 228.454 94.5706 228.817 92.7147C228.827 92.6476 228.814 92.5791 228.781 92.5201C228.747 92.4611 228.695 92.4152 228.632 92.3896C228.569 92.364 228.5 92.3602 228.435 92.3789C228.37 92.3977 228.313 92.4378 228.273 92.4928V92.4928Z" fill="#353A4D"/>
<path d="M237.323 313.527C235.144 314.299 233.327 315.851 232.224 317.885C232.112 318.095 232.07 318.335 232.103 318.571C232.181 318.875 232.367 319.14 232.627 319.317C234.082 320.201 235.811 320.517 237.484 320.205C242.708 319.794 247.909 319.121 253.065 318.187C253.52 318.139 253.96 317.994 254.355 317.764C254.836 317.39 255.2 316.886 255.403 316.311C256.068 314.859 258.447 309.816 257.419 308.403C256.391 306.991 252.501 307.193 251.19 307.435C246.534 308.343 241.576 311.47 237.323 313.527Z" fill="#46A4D4"/>
<path d="M236.9 161.767C236.046 162.348 235.262 163.025 234.562 163.784C233.497 164.867 232.691 166.178 232.203 167.617C232.006 168.233 231.935 168.883 231.993 169.528C232.052 170.172 232.24 170.799 232.546 171.369C232.87 171.919 233.343 172.366 233.91 172.658C234.477 172.951 235.115 173.078 235.751 173.023C236.353 172.906 236.925 172.666 237.431 172.319C237.937 171.972 238.367 171.525 238.694 171.006C239.439 170.038 240.004 168.989 240.709 168.04C241.717 167.086 242.774 166.184 243.874 165.337C244.404 164.938 244.838 164.424 245.141 163.834C245.445 163.244 245.611 162.592 245.627 161.928C245.466 157.571 238.815 160.455 236.9 161.767Z" fill="#F0C9B9"/>
<path d="M273.846 110.931C272.005 114.899 270.775 119.122 270.198 123.458C269.875 125.96 269.21 128.3 269.049 130.821C269.064 133.478 268.656 136.12 267.839 138.648C266.447 141.789 264.383 144.585 261.792 146.839C256.383 151.486 250.257 155.226 243.652 157.914C241.798 158.721 240.77 159.144 240.306 159.931C241.173 162.816 242.06 165.68 242.987 168.545C252.945 165.78 262.725 162.412 272.274 158.458C275.019 157.512 277.543 156.016 279.691 154.061C281.762 151.598 283.207 148.67 283.904 145.527C287.206 133.933 288.246 121.81 286.967 109.821C286.766 107.804 285.577 103.043 282.936 102.599C282.123 102.5 281.299 102.575 280.517 102.818C279.735 103.062 279.014 103.468 278.401 104.012C277.177 105.108 276.166 106.421 275.418 107.885C274.874 108.873 274.33 109.902 273.846 110.931Z" fill="#54AB92"/>
<path d="M322.281 154.484C324.98 152.59 326.888 149.768 327.642 146.556C328.361 143.374 328.679 140.114 328.59 136.853C328.691 131.093 328.428 125.332 327.804 119.605C327.562 117.447 327.219 115.288 326.816 113.15C326.19 111.226 325.711 109.257 325.385 107.259C325.457 105.422 325.721 103.596 326.171 101.813C326.741 99.2333 326.708 96.557 326.075 93.9923C325.442 91.4276 324.227 89.0436 322.523 87.026C319.753 84.2621 316.099 82.5624 312.203 82.2249C307.237 81.6398 302.217 82.7259 297.936 85.312C293.655 87.8981 290.356 91.8369 288.56 96.5073C287.801 98.5561 287.261 100.679 286.947 102.842C284.246 120.251 289.144 139.677 302.447 151.741C307.506 156.32 316.073 158.458 322.281 154.484Z" fill="#E37474"/>
<path d="M290.474 169.372C290.158 165.05 288.605 160.911 286 157.45C283.984 155.029 279.731 151.882 276.526 151.72C274.096 151.697 271.725 152.469 269.774 153.919C266.02 156.793 263.309 160.817 262.054 165.378C260.825 169.904 260.095 174.551 259.878 179.236C259.313 186.176 258.628 193.075 257.862 199.994C253.831 236.171 249.8 272.334 245.768 308.484L260.442 310.501C269.727 281.574 277.79 252.282 284.629 222.628C288.721 205.138 292.349 187.124 290.474 169.372Z" fill="#D98716"/>
<path d="M317.201 312.519C313.91 314.958 311.014 317.891 308.615 321.213C308.154 321.775 307.817 322.428 307.627 323.13C307.549 323.48 307.574 323.846 307.699 324.182C307.824 324.519 308.044 324.812 308.333 325.026C308.964 325.325 309.686 325.369 310.348 325.147C316.796 323.785 322.848 320.97 328.045 316.916C328.367 316.696 328.636 316.406 328.831 316.069C328.999 315.653 329.048 315.2 328.973 314.758C328.376 311.149 327.105 307.686 325.223 304.55C325.121 304.291 324.946 304.067 324.72 303.905C324.544 303.831 324.356 303.793 324.165 303.793C323.975 303.793 323.787 303.831 323.611 303.905C321.958 304.53 318.733 305.398 317.846 307.092C316.96 308.787 319.217 311.086 317.201 312.519Z" fill="#46A4D4"/>
<path d="M329.537 308.161C325.319 309.984 320.667 310.558 316.133 309.816C303.294 283.591 297.67 254.643 290.515 226.38C286.161 209.133 281.727 191.885 278.159 174.415C277.494 171.127 275.277 165.862 277.373 163.098C278.865 161.081 282.997 159.326 285.093 158.196C291.422 154.807 299.202 150.591 306.64 153.012C312.263 154.867 312.868 161.706 313.916 166.87C317.363 183.715 318.633 200.882 319.963 217.988C321.293 235.095 323.248 251.859 325.728 268.622C326.997 277.539 328.267 286.455 329.215 295.392C329.295 296.764 331.311 307.415 329.537 308.161Z" fill="#EB9928"/>
<path d="M278.623 168.141C282.231 167.919 285.818 167.697 289.446 167.536C297.932 167.173 306.438 167.153 314.924 166.729C315.085 159.366 315.428 151.983 315.186 144.781C314.843 134.271 315.387 123.7 314.44 113.21C314.037 108.671 313.513 105.302 310.63 101.57C307.921 97.97 304.129 95.3337 299.812 94.0484C295.495 92.7632 290.88 92.8966 286.645 94.4293C282.201 95.9812 278.475 99.101 276.164 103.204C270.694 112.168 267.062 122.132 265.481 132.516C263.465 144.014 262.639 155.755 260.543 167.253C266.569 167.496 272.576 167.919 278.623 168.141Z" fill="#72CC9B"/>
<path d="M310.651 164.934C309.272 166.086 308.081 167.447 307.123 168.968C306.639 169.724 306.337 170.583 306.243 171.476C306.149 172.369 306.264 173.272 306.579 174.112C306.936 174.936 307.594 175.592 308.419 175.944C309.244 176.297 310.172 176.32 311.014 176.009C312.081 175.278 312.886 174.225 313.311 173.003C314.575 170.585 316.117 168.324 317.907 166.265C318.338 165.814 318.705 165.305 318.995 164.752C319.134 164.473 319.206 164.166 319.206 163.855C319.206 163.543 319.134 163.236 318.995 162.957C318.27 161.827 315.851 161.928 314.682 162.21C313.136 162.775 311.752 163.71 310.651 164.934Z" fill="#F0C9B9"/>
<path d="M342.618 136.691C341.207 148.553 325.969 160.677 319.036 167.879C318.886 168.048 318.709 168.192 318.512 168.302C317.927 168.585 317.242 168.202 316.698 167.859C310.187 163.542 311.034 162.109 315.226 155.957C318.27 151.478 321.273 146.879 323.893 142.199C326.09 138.426 328.086 136.772 325.345 133.161C323.329 130.599 319.499 129.127 316.879 127.351C312.788 124.502 309.295 120.876 306.599 116.68C305.143 114.524 303.964 112.192 303.092 109.74C302.68 108.599 302.396 107.415 302.246 106.21C302.293 105.159 302.157 104.108 301.843 103.104C301.388 101.986 301.129 100.799 301.077 99.5935C300.973 99.0126 301.008 98.4153 301.18 97.8507C301.352 97.2861 301.655 96.7703 302.064 96.3457C302.399 96.0997 302.783 95.9276 303.189 95.8407C303.596 95.7537 304.016 95.754 304.423 95.8414C305.241 96.0217 306.024 96.3352 306.74 96.7693C312.914 100.237 318.704 104.348 324.014 109.034C329.324 113.626 334.129 118.772 338.345 124.386C339.683 126.069 340.807 127.912 341.691 129.873C342.594 132.025 342.913 134.377 342.618 136.691V136.691Z" fill="#72CC9B"/>
<path d="M316.778 134.775C316.254 134.372 315.67 134.069 315.125 133.726L314.964 133.565C314.581 133.081 314.319 132.476 313.735 132.193C309.788 127.97 307.094 122.732 305.954 117.063C304.685 109.398 307.164 102.579 310.55 95.8214C310.872 95.1557 310.006 94.3689 309.441 94.9741C299.363 106.13 301.52 126.706 313.473 135.723L313.714 135.844C314.327 136.373 315.061 136.74 315.851 136.914C316.128 137.006 316.43 136.991 316.697 136.872C316.964 136.753 317.176 136.538 317.293 136.269C317.409 136.001 317.421 135.699 317.326 135.422C317.23 135.146 317.035 134.915 316.778 134.775V134.775Z" fill="#E37474"/>
<path d="M294.526 78.856C295.231 73.7321 296.038 68.2249 293.619 64.1499C288.983 56.3632 277.071 56.0001 273.725 64.977C272.767 68.0087 272.317 71.1785 272.395 74.3574C272.294 77.6254 272.395 81.3171 274.713 83.5966C275.491 84.2096 276.219 84.8842 276.889 85.6139C277.344 86.2986 277.678 87.0559 277.877 87.8531C279.001 90.9508 279.871 94.1353 280.477 97.3747C280.78 99.5332 280.477 103.971 282.896 105.182C284.059 105.877 285.422 106.161 286.766 105.989C289.847 105.761 292.76 104.495 295.03 102.398C295.596 101.91 296.039 101.295 296.32 100.602C296.578 99.4388 296.458 98.223 295.977 97.1326C294.711 93.2201 294.031 89.1411 293.962 85.0289C294.024 82.9617 294.212 80.9002 294.526 78.856V78.856Z" fill="#F0C9B9"/>
<path d="M295.856 60.7205C293.014 57.3919 286.665 55.0317 282.452 56.4035C280.565 57.0073 278.619 57.4129 276.648 57.6138C275.371 57.6948 274.103 57.8837 272.858 58.1787C272.223 58.3336 271.627 58.6178 271.107 59.0135C270.587 59.4091 270.154 59.9078 269.835 60.4784C269.633 60.9998 269.547 61.559 269.584 62.117C269.621 62.675 269.78 63.2181 270.049 63.7082C270.317 64.1984 270.69 64.6237 271.141 64.9544C271.591 65.2851 272.109 65.5131 272.657 65.6225C274.438 66.0054 276.27 66.0872 278.079 65.8646C280.215 65.8646 282.332 65.562 284.468 65.5014C286.078 65.2879 287.715 65.4892 289.225 66.0865C289.475 66.2035 289.693 66.3808 289.858 66.6026C290.024 66.8243 290.132 67.0837 290.172 67.3573L290.676 71.7954C290.686 73.2563 291.175 74.6736 292.067 75.83C292.793 76.5965 294.808 77.4438 295.695 76.4553C296.3 75.8098 296.038 72.5821 296.118 71.6743C296.36 69.3141 297.61 62.7983 295.856 60.7205Z" fill="#353A4D"/>
<path d="M292.752 71.2708C291.22 69.2535 286.705 71.7348 288.459 74.2161C288.937 74.7386 289.578 75.0831 290.278 75.1931C290.977 75.303 291.693 75.1719 292.309 74.8213C292.603 74.6431 292.853 74.4004 293.04 74.1116C293.228 73.8228 293.347 73.4952 293.39 73.1536C293.432 72.8119 293.397 72.465 293.287 72.139C293.176 71.8129 292.993 71.5161 292.752 71.2708V71.2708Z" fill="#F0C9B9"/>
<path d="M279.691 77.726C279.104 78.4635 278.251 78.9404 277.316 79.0536C276.38 79.1669 275.438 78.9074 274.692 78.3312C274.189 77.9479 273.503 78.5935 273.987 79.0373C274.432 79.4752 274.968 79.8082 275.558 80.0122C276.147 80.2162 276.775 80.2859 277.395 80.2164C278.015 80.1468 278.611 79.9396 279.141 79.61C279.671 79.2804 280.12 78.8366 280.457 78.311C280.521 78.2088 280.545 78.0862 280.523 77.9673C280.502 77.8484 280.437 77.7419 280.341 77.6686C280.245 77.5953 280.125 77.5606 280.005 77.5712C279.885 77.5818 279.773 77.6371 279.691 77.726V77.726Z" fill="#353A4D"/>
</g>
<rect x="63.0637" y="323.415" width="245.329" height="78.4706" transform="rotate(6.24769 63.0637 323.415)" fill="#72CC9B"/>
<path d="M83.8266 351.605C85.3525 350.422 87.071 349.586 88.9822 349.096C90.8988 348.565 92.8518 348.425 94.8413 348.677C98.7356 349.169 101.52 350.618 103.194 353.023C104.868 355.429 105.448 358.663 104.934 362.727L102.186 384.441L89.5508 382.843L92.1055 362.652C92.2875 361.213 92.0512 360.021 91.3964 359.078C90.7892 358.098 89.8084 357.523 88.4539 357.351C86.8877 357.153 85.5535 357.501 84.4514 358.393C83.3493 359.286 82.7046 360.473 82.5171 361.955L80.0268 381.638L67.3915 380.039L73.2157 334.006L85.851 335.605L83.8266 351.605ZM114.926 347.992L116.01 339.421L128.645 341.019L127.561 349.591L114.926 347.992ZM110.186 385.454L114.427 351.929L127.063 353.527L122.821 387.052L110.186 385.454ZM158.493 357.504L173.223 359.368L159.131 371.325L169.299 392.933L154.949 391.117L149.356 378.733L144.436 382.433L143.521 389.671L130.885 388.072L136.718 341.976L149.353 343.575L146.139 368.972L158.493 357.504ZM178.419 356.026L179.504 347.454L192.139 349.053L191.055 357.624L178.419 356.026ZM173.68 393.487L177.921 359.962L190.557 361.561L186.315 395.086L173.68 393.487ZM221.829 364.743C225.723 365.236 228.507 366.685 230.181 369.09C231.855 371.495 232.435 374.73 231.921 378.793L229.174 400.508L216.538 398.91L219.093 378.719C219.275 377.279 219.039 376.088 218.384 375.145C217.777 374.165 216.796 373.59 215.442 373.418C213.875 373.22 212.541 373.567 211.439 374.46C210.337 375.353 209.692 376.54 209.505 378.021L207.014 397.705L194.379 396.106L198.621 362.581L208.97 363.891L209.153 369.075C210.69 367.463 212.584 366.262 214.834 365.471C217.127 364.686 219.458 364.443 221.829 364.743ZM279.481 366.425C279.155 369.007 278.247 370.914 276.758 372.145C275.311 373.381 273.254 374.174 270.586 374.525C271.696 375.611 272.509 376.832 273.026 378.188C273.59 379.507 273.784 380.864 273.607 382.261C273.157 385.817 271.463 388.333 268.523 389.811C265.626 391.294 262.167 391.781 258.146 391.272L253.32 390.661C250.653 390.324 249.242 390.769 249.087 391.996C249.012 392.589 249.247 393.113 249.791 393.569C250.341 393.983 251.357 394.283 252.838 394.471L264.267 395.917C267.992 396.388 270.684 397.718 272.342 399.906C274.001 402.094 274.624 404.818 274.211 408.077C273.906 410.49 273.009 412.484 271.519 414.059C270.03 415.633 268.149 416.729 265.878 417.345C263.607 417.96 261.201 418.108 258.662 417.786L239.995 415.424C238.471 415.232 237.098 414.692 235.877 413.807C234.698 412.927 233.808 411.803 233.207 410.437C232.6 409.113 232.393 407.689 232.586 406.165C232.795 404.514 233.493 403.076 234.68 401.85C235.862 400.666 237.258 399.832 238.868 399.348C237.943 398.5 237.248 397.53 236.784 396.439C236.32 395.348 236.163 394.21 236.313 393.025C236.522 391.374 237.323 389.97 238.717 388.814C240.116 387.614 241.755 386.897 243.634 386.662C242.117 385.395 240.957 384.022 240.155 382.544C239.358 381.024 239.056 379.502 239.249 377.979C239.742 374.084 241.659 371.51 245 370.255C248.389 368.964 252.686 368.648 257.893 369.306C260.179 369.595 262.004 369.955 263.369 370.386C265.609 369.336 267.092 368.32 267.819 367.337C268.593 366.316 269.009 365.573 269.068 365.108L279.481 366.425ZM256.93 375.894C255.534 375.717 254.345 375.932 253.365 376.539C252.385 377.146 251.81 378.127 251.638 379.482C251.461 380.879 251.73 381.988 252.443 382.809C253.204 383.593 254.346 384.082 255.87 384.275C257.394 384.468 258.622 384.279 259.554 383.709C260.534 383.102 261.113 382.1 261.289 380.703C261.466 379.306 261.153 378.213 260.35 377.423C259.594 376.596 258.454 376.086 256.93 375.894ZM248.539 402.958C247.565 402.835 246.729 402.987 246.03 403.415C245.367 403.89 244.975 404.615 244.852 405.588C244.728 406.562 244.947 407.385 245.507 408.058C246.067 408.731 246.812 409.126 247.744 409.244L257.649 410.497C258.58 410.615 259.4 410.418 260.11 409.906C260.857 409.441 261.292 408.722 261.415 407.748C261.539 406.775 261.318 405.973 260.752 405.342C260.187 404.712 259.417 404.335 258.444 404.212L248.539 402.958Z" fill="white"/>
</g>
<defs>
<clipPath id="clip0">
<rect width="510" height="440" fill="white"/>
</clipPath>
<clipPath id="clip1">
<rect x="162" y="56" width="186" height="273" fill="white"/>
</clipPath>
</defs>
</svg>
