<svg width="510" height="440" viewBox="0 0 510 440" fill="none" xmlns="http://www.w3.org/2000/svg">
<path fill-rule="evenodd" clip-rule="evenodd" d="M247.369 20.626C288.336 17.5673 333.455 25.2566 362.897 53.9164C391.201 81.4674 384.024 127.039 395.518 164.836C406.698 201.599 438.792 234.89 429.251 272.113C419.614 309.712 379.426 328.796 347.748 351.207C316.516 373.302 285.498 403.848 247.369 400.787C209.788 397.77 181.58 365.449 158.05 335.979C138.997 312.115 134.32 281.635 128.325 251.688C123.069 225.433 123.233 200.057 125.498 173.377C128.524 137.731 121.418 98.2407 143.726 70.2806C168.221 39.5791 208.212 23.5497 247.369 20.626Z" fill="#7EB9F5"/>
<path fill-rule="evenodd" clip-rule="evenodd" d="M247.355 33.7211C286.295 25.4572 335.383 25.4488 361.849 55.2275C388.606 85.3335 359.242 134.283 370.994 172.833C382.372 210.159 437.502 234.004 427.878 271.822C418.419 308.995 366.463 313.592 331.304 328.804C304.152 340.551 276.912 350.98 247.355 349.926C218.624 348.902 190.533 340.386 167.639 322.969C145.081 305.808 129.554 281.236 121.36 254.076C113.293 227.339 114.957 199.312 122.193 172.337C129.772 144.088 143.82 119.036 163.409 97.3411C187.536 70.6203 212.167 41.1889 247.355 33.7211Z" fill="#DA5955"/>
<path fill-rule="evenodd" clip-rule="evenodd" d="M247.338 50.9647C280.089 55.6898 309.762 71.5636 334.066 93.9809C356.264 114.456 365.79 143.096 377.413 170.945C390.232 201.663 413.759 232.165 405.151 264.313C396.463 296.756 363.656 316.252 334.173 332.428C307.587 347.014 277.661 351.799 247.338 350.894C217.821 350.012 189.703 342.206 164.198 327.352C136.25 311.077 109.53 291.461 95.3967 262.409C79.9243 230.603 74.7747 194.191 82.649 159.719C91.0151 123.094 108.87 86.7464 140.257 66.0195C171.073 45.6694 210.768 45.6886 247.338 50.9647Z" fill="white"/>
<g clip-path="url(#clip0)">
<path d="M250.025 319.012C283.7 319.012 311 313.27 311 306.187C311 299.104 283.7 293.362 250.025 293.362C216.349 293.362 189.049 299.104 189.049 306.187C189.049 313.27 216.349 319.012 250.025 319.012Z" fill="#ECEDEB"/>
<path d="M245.53 111.719C245.53 111.719 251.949 132.876 271.244 130.957C290.538 129.038 296.995 113.96 296.995 113.96C296.995 113.96 295.753 102.422 296.039 100.813C296.324 99.2036 301.825 101.457 301.825 101.457C301.825 101.457 309.535 99.5379 310.181 101.457C310.576 102.589 310.687 103.8 310.503 104.985V113.65C310.503 115.891 306.642 118.788 303.054 124.557C299.465 130.325 294.362 138.657 277.328 143.126C260.293 147.595 250.968 145.688 245.182 138.632C239.396 131.576 245.53 111.719 245.53 111.719Z" fill="#F6BA99"/>
<path d="M245.53 111.719C245.53 111.719 239.409 131.601 245.207 138.644C246.258 139.948 247.487 141.098 248.858 142.061L259.188 128.778C249.18 123.641 245.53 111.719 245.53 111.719Z" fill="#7EB9F5"/>
<path d="M216.973 290.292C216.973 290.292 211.783 305.061 213.72 306.967C215.657 308.874 246.188 313.058 249.404 310.817C252.62 308.577 248.758 305.048 242.016 302.795C235.274 300.542 233.971 299.589 233.971 299.589L234.616 293.82L216.973 290.292Z" fill="#393762"/>
<path d="M242.625 303.018L241.383 308.255L213.36 303.947C213.199 305.408 213.273 306.522 213.72 306.967C215.645 308.886 246.188 313.058 249.404 310.817C252.62 308.577 248.982 305.259 242.625 303.018Z" fill="#DECBB6"/>
<path d="M298.919 197.954C288.986 183.532 267.718 164.938 265.793 162.054C263.869 159.169 250.695 139.932 250.049 120.372C249.404 100.813 258.095 95.6879 259.374 86.3909C260.653 77.094 248.125 71.9565 242.972 74.5315C242.972 74.5315 233.648 72.6003 209.859 84.1503C186.069 95.7003 177.055 122.613 176.41 133.841C175.764 145.069 185.411 146.023 188.627 141.269C191.843 136.515 194.103 125.559 200.211 115.879C206.32 106.198 220.152 101.135 220.152 101.135C220.152 101.135 212.106 124.544 217.892 154.676C223.678 184.807 241.048 213.676 242.016 223.926C242.985 234.176 233.971 248.611 227.862 261.436C221.753 274.261 208.89 291.258 208.89 291.258L241.371 300.877C248.311 289.129 254.643 277.035 260.342 264.642C260.342 264.642 287.347 248.611 297.317 237.407C307.288 226.204 308.852 212.389 298.919 197.954ZM274.161 225.833C274.161 225.833 273.205 221.661 272.56 217.489C271.914 213.317 260.665 190.254 260.665 190.254C260.665 190.254 275.776 205.642 277.377 210.767C278.979 215.892 274.161 225.833 274.161 225.833Z" fill="#7EB9F5"/>
<path d="M248.758 62.0283L237.832 79.9785L243.941 100.491L248.125 84.1503L255.19 78.691L248.758 62.0283Z" fill="#F2957E"/>
<path d="M253.911 56.8908C253.911 56.8908 252.297 51.122 249.727 51.122C247.157 51.122 244.586 56.8908 244.586 60.4189C244.586 63.947 248.758 63.6623 248.758 63.6623C248.758 63.6623 248.125 80.3374 254.879 82.5781C261.634 84.8187 270.213 77.0073 274.162 72.3279C276.874 69.168 279.247 65.7324 281.239 62.0778L263.856 49.2527L253.911 56.8908Z" fill="#F6BA99"/>
<path d="M249.404 54.3283C249.404 54.3283 260.02 29 266.451 29C272.883 29 295.716 45.3532 294.747 55.2939C293.779 65.2345 281.239 62.0283 281.239 62.0283L264.527 50.8001L253.588 59.4657L249.404 54.3283Z" fill="#393762"/>
<path d="M183.45 110.964C179.73 118.52 177.532 126.73 176.981 135.129C176.335 146.344 185.411 146.023 188.627 141.207C191.483 136.948 193.594 127.887 198.287 119.184C194.117 115.238 189.013 112.41 183.45 110.964V110.964Z" fill="#F6BA99"/>
<path d="M301.825 101.457L303.426 110.754L300.856 111.719L297.318 105.629" stroke="#393762" stroke-width="0.5" stroke-miterlimit="10"/>
<path d="M195.257 125.795C195.257 125.795 188.317 140.254 196.673 146.988C205.029 153.723 219.506 155.654 222.399 155.654C225.292 155.654 229.153 154.044 230.109 152.448C231.065 150.851 238.801 153.091 238.801 153.091L239.757 155.976L243.618 157.894C243.618 157.894 245.232 160.457 243.295 160.779C241.358 161.101 240.079 161.101 239.757 162.017C239.434 162.933 237.186 168.751 232.307 169.704C227.427 170.658 220.4 169.704 209.474 168.466C198.548 167.229 186.541 164.344 179.563 149.897C169.631 129.125 183.45 110.964 183.45 110.964" fill="#F6BA99"/>
<path d="M269.245 165.718L227.291 185.798C234.02 203.129 241.396 217.353 242.016 223.926C242.972 234.189 233.971 248.611 227.862 261.436C221.753 274.261 208.89 291.258 208.89 291.258L241.371 300.877C248.311 289.129 254.643 277.035 260.342 264.642C260.342 264.642 287.347 248.611 297.318 237.407C307.288 226.204 308.902 212.401 298.932 197.967C291.035 186.528 276.086 172.49 269.245 165.718ZM274.211 225.857C274.211 225.857 273.255 221.686 272.61 217.514C271.964 213.342 260.715 190.279 260.715 190.279C260.715 190.279 275.825 205.667 277.427 210.792C279.029 215.917 274.162 225.833 274.162 225.833L274.211 225.857Z" fill="#DA5955"/>
<path d="M274.161 225.833C274.161 225.833 272.56 247.633 260.342 264.617" stroke="#393762" stroke-width="0.5" stroke-miterlimit="10"/>
<path d="M235.597 182.245C235.597 182.245 252.309 210.148 252.309 231.626C252.309 253.104 224.336 295.999 224.336 295.999" stroke="#393762" stroke-width="0.5" stroke-miterlimit="10"/>
<path d="M260.02 188.694C260.02 188.694 289.918 205.691 286.714 220.113C285.702 224.413 283.807 228.457 281.149 231.99C278.49 235.522 275.126 238.467 271.269 240.638" stroke="#393762" stroke-width="0.5" stroke-miterlimit="10"/>
</g>
<rect x="69.192" y="331.613" width="348.839" height="90" transform="rotate(-6.02269 69.192 331.613)" fill="#7EB9F5"/>
<path d="M114.389 350.292C119.505 349.839 123.597 351.163 126.667 354.264C129.736 357.366 131.561 362.192 132.141 368.742C132.717 375.245 131.766 380.292 129.289 383.885C126.808 387.429 123.01 389.428 117.894 389.881C113.495 390.27 109.83 389.149 106.898 386.518L108.454 404.089L94.1817 405.352L89.5782 353.356L101.197 352.327L102.892 357.598C105.297 353.193 109.129 350.757 114.389 350.292ZM110.875 361.228C108.772 361.414 107.259 362.295 106.339 363.871C105.418 365.446 105.064 367.429 105.275 369.82L105.485 372.186C105.697 374.577 106.396 376.491 107.583 377.928C108.766 379.317 110.41 379.918 112.514 379.732C116.626 379.368 118.464 376.723 118.028 371.799L117.691 367.998C117.259 363.121 114.987 360.864 110.875 361.228ZM155.985 346.609C161.771 346.097 166.567 346.66 170.374 348.299C174.178 349.889 176.272 352.86 176.657 357.211L177.965 371.986C178.037 372.798 178.287 373.451 178.717 373.943C179.146 374.435 179.743 374.647 180.508 374.579L183.09 374.351L183.82 382.599C183.685 382.707 183.317 382.908 182.717 383.202C182.16 383.444 181.34 383.71 180.257 383.998C179.179 384.335 177.922 384.566 176.488 384.693C173.715 384.939 171.384 384.736 169.495 384.084C167.65 383.38 166.327 382.316 165.526 380.893C163.836 382.488 161.906 383.816 159.735 384.875C157.564 385.935 154.972 386.598 151.96 386.865C143.067 387.652 138.307 384.508 137.68 377.431C137.354 373.75 138.087 370.866 139.878 368.78C141.712 366.642 144.463 365.049 148.129 364.002C151.795 362.954 156.64 362.164 162.664 361.631L162.499 359.766C162.368 358.284 161.742 357.207 160.623 356.535C159.551 355.859 158.202 355.593 156.577 355.736C155.094 355.868 153.827 356.245 152.774 356.868C151.768 357.487 151.316 358.371 151.418 359.518L151.443 359.805L137.386 361.05C137.317 360.815 137.264 360.482 137.226 360.052C136.908 356.466 138.354 353.471 141.562 351.066C144.819 348.658 149.626 347.172 155.985 346.609ZM163.261 368.372C159.197 368.732 156.225 369.453 154.345 370.535C152.509 371.565 151.656 372.821 151.787 374.303C151.999 376.694 153.731 377.745 156.982 377.457C158.847 377.292 160.428 376.646 161.725 375.519C163.071 374.388 163.678 373.082 163.547 371.6L163.261 368.372ZM208.119 341.921C209.218 341.824 210.211 341.88 211.097 342.091C211.979 342.254 212.422 342.359 212.426 342.407L213.487 354.384L208.897 354.791C205.932 355.053 203.848 356.009 202.645 357.657C201.489 359.301 201.045 361.63 201.312 364.642L202.804 381.496L188.532 382.76L185.179 344.892L196.869 343.857L198.31 349.512C198.976 347.236 200.192 345.466 201.96 344.201C203.723 342.889 205.776 342.129 208.119 341.921ZM245.864 339.519L246.721 349.201L238.689 349.912L239.965 364.328C240.117 366.049 240.516 367.291 241.162 368.053C241.803 368.767 242.889 369.056 244.419 368.921L248.436 368.565L249.178 376.957C248.065 377.441 246.61 377.883 244.814 378.283C243.019 378.683 241.451 378.942 240.113 379.06C235.905 379.433 232.586 378.956 230.156 377.629C227.773 376.298 226.419 373.791 226.093 370.11L224.416 351.176L219.109 351.646L218.252 341.964L224.133 341.443L226.201 329.695L236.815 328.755L237.831 340.23L245.864 339.519ZM281.771 373.348C280.281 378.829 278.222 383.059 275.594 386.038C273.019 389.061 269.173 390.799 264.057 391.252C260.949 391.527 258.162 391.34 255.695 390.691L254.94 382.157L260.677 381.649C264.263 381.331 266.236 379.398 266.597 375.848L248.183 339.314L263.531 337.955L273.003 362.487L273.505 362.443L277.947 336.679L292.004 335.434L281.771 373.348ZM296.439 330.56L295.581 320.878L309.854 319.614L310.711 329.296L296.439 330.56ZM300.185 372.874L296.832 335.007L311.105 333.743L314.457 371.611L300.185 372.874ZM346.243 329.765C350.642 329.375 354.049 330.302 356.464 332.546C358.88 334.79 360.29 338.207 360.697 342.797L362.868 367.325L348.596 368.588L346.577 345.782C346.433 344.156 345.888 342.903 344.943 342.023C344.041 341.091 342.826 340.693 341.296 340.828C339.526 340.985 338.143 341.685 337.145 342.93C336.147 344.175 335.722 345.634 335.87 347.308L337.838 369.541L323.566 370.804L320.213 332.936L331.904 331.901L333.344 337.556C334.648 335.417 336.443 333.644 338.728 332.237C341.061 330.826 343.566 330.002 346.243 329.765ZM410.023 317.829C410.281 320.746 409.739 323.059 408.396 324.768C407.101 326.473 405.03 327.837 402.181 328.86C403.66 329.789 404.846 330.937 405.738 332.304C406.674 333.618 407.212 335.064 407.351 336.642C407.707 340.659 406.446 343.83 403.568 346.157C400.737 348.48 397.051 349.842 392.509 350.244L387.058 350.727C384.046 350.993 382.601 351.82 382.724 353.207C382.783 353.876 383.167 354.396 383.874 354.767C384.577 355.091 385.766 355.178 387.439 355.03L400.349 353.887C404.556 353.514 407.833 354.333 410.18 356.342C412.526 358.35 413.862 361.196 414.188 364.877C414.429 367.603 413.919 370.009 412.659 372.096C411.398 374.184 409.593 375.837 407.243 377.057C404.893 378.277 402.284 379.014 399.415 379.268L378.33 381.135C376.609 381.287 374.971 381.023 373.417 380.341C371.91 379.655 370.663 378.633 369.676 377.275C368.692 375.965 368.125 374.449 367.972 372.728C367.807 370.863 368.231 369.115 369.243 367.483C370.259 365.899 371.594 364.649 373.247 363.731C372.028 363.02 371.033 362.12 370.262 361.032C369.491 359.944 369.046 358.73 368.927 357.392C368.762 355.527 369.307 353.792 370.563 352.187C371.814 350.534 373.444 349.354 375.454 348.646C373.483 347.616 371.88 346.384 370.645 344.952C369.406 343.471 368.71 341.87 368.557 340.149C368.168 335.75 369.66 332.462 373.033 330.284C376.449 328.054 381.098 326.679 386.979 326.158C389.561 325.929 391.654 325.889 393.257 326.036C395.469 324.346 396.856 322.874 397.42 321.62C398.027 320.313 398.307 319.397 398.261 318.871L410.023 317.829ZM387.496 333.63C385.918 333.769 384.663 334.29 383.731 335.192C382.799 336.093 382.401 337.309 382.536 338.839C382.676 340.417 383.236 341.572 384.216 342.305C385.24 342.985 386.613 343.249 388.334 343.096C390.056 342.944 391.36 342.443 392.249 341.593C393.181 340.692 393.577 339.452 393.438 337.874C393.298 336.296 392.692 335.169 391.62 334.493C390.592 333.765 389.217 333.477 387.496 333.63ZM384.742 365.388C383.643 365.485 382.759 365.853 382.093 366.49C381.479 367.171 381.22 368.061 381.318 369.161C381.415 370.261 381.852 371.113 382.628 371.719C383.405 372.325 384.319 372.581 385.371 372.488L396.559 371.498C397.611 371.405 398.466 370.992 399.124 370.259C399.834 369.569 400.14 368.675 400.043 367.575C399.945 366.476 399.511 365.647 398.738 365.089C397.966 364.531 397.03 364.3 395.93 364.398L384.742 365.388Z" fill="white"/>
<defs>
<clipPath id="clip0">
<rect x="176" y="29" width="135" height="290" fill="white"/>
</clipPath>
</defs>
</svg>
