<svg width="999" height="572" viewBox="0 0 999 572" fill="none" xmlns="http://www.w3.org/2000/svg">
<rect width="999" height="572" rx="16" fill="#2C2A2B"/>
<path d="M97.0838 357.55V404.543H76.7717V357.55H56V341.396H117.764V357.55H97.0838Z" fill="white"/>
<path d="M146.534 361.13C148.494 359.172 150.792 357.672 153.427 356.632C156.062 355.531 158.819 354.98 161.699 354.98C167.336 354.98 171.564 356.54 174.382 359.661C177.201 362.782 178.61 367.279 178.61 373.153V404.543H160.32V375.356C160.32 373.276 159.769 371.624 158.666 370.4C157.624 369.115 156.123 368.472 154.162 368.472C151.895 368.472 150.057 369.207 148.647 370.675C147.238 372.144 146.534 373.949 146.534 376.09V404.543H128.243V338H146.534V361.13Z" fill="white"/>
<path d="M214.638 354.98C223.523 354.98 230.294 357.061 234.95 361.221C239.668 365.382 242.027 371.746 242.027 380.312V383.433H205.631C205.631 386.921 206.397 389.552 207.929 391.327C209.522 393.101 212.003 393.988 215.373 393.988C218.437 393.988 220.674 393.346 222.083 392.061C223.553 390.776 224.289 389.063 224.289 386.921H242.027C242.027 392.795 239.791 397.384 235.318 400.689C230.845 403.993 224.319 405.645 215.741 405.645C206.734 405.645 199.749 403.564 194.786 399.404C189.822 395.182 187.341 388.818 187.341 380.312C187.341 371.991 189.761 365.688 194.602 361.405C199.442 357.122 206.121 354.98 214.638 354.98ZM215.373 366.637C209.614 366.637 206.397 369.36 205.723 374.805H223.553C223.553 372.297 222.818 370.308 221.348 368.839C219.938 367.371 217.947 366.637 215.373 366.637Z" fill="white"/>
<path d="M330.261 404.543L322.081 366.086H321.713L313.533 404.543H291.199L276.402 341.396H297.541L304.802 377.192H305.17L312.339 341.396H332.375L340.004 377.192H340.371L347.172 341.396H367.393L352.595 404.543H330.261Z" fill="white"/>
<path d="M377.062 350.391V338H395.352V350.391H377.062ZM377.062 404.543V356.081H395.352V404.543H377.062Z" fill="white"/>
<path d="M436.528 354.888C437.938 354.888 439.194 355.072 440.297 355.439C441.4 355.745 441.951 355.928 441.951 355.99V371.318H436.069C432.27 371.318 429.513 372.297 427.797 374.255C426.143 376.213 425.315 379.119 425.315 382.974V404.543H407.025V356.081H422.007L423.202 363.424C424.304 360.609 426.051 358.498 428.44 357.091C430.83 355.623 433.526 354.888 436.528 354.888Z" fill="white"/>
<path d="M474.392 354.98C483.276 354.98 490.047 357.061 494.704 361.221C499.422 365.382 501.781 371.746 501.781 380.312V383.433H465.385C465.385 386.921 466.151 389.552 467.682 391.327C469.275 393.101 471.757 393.988 475.127 393.988C478.191 393.988 480.427 393.346 481.837 392.061C483.307 390.776 484.042 389.063 484.042 386.921H501.781C501.781 392.795 499.545 397.384 495.072 400.689C490.599 403.993 484.073 405.645 475.495 405.645C466.488 405.645 459.502 403.564 454.539 399.404C449.576 395.182 447.095 388.818 447.095 380.312C447.095 371.991 449.515 365.688 454.355 361.405C459.196 357.122 465.875 354.98 474.392 354.98ZM475.127 366.637C469.367 366.637 466.151 369.36 465.477 374.805H483.307C483.307 372.297 482.572 370.308 481.101 368.839C479.692 367.371 477.701 366.637 475.127 366.637Z" fill="white"/>
<path d="M58.022 472.403C58.022 461.694 60.9631 453.587 66.8454 448.08C72.7889 442.512 81.214 439.727 92.1207 439.727C103.027 439.727 111.452 442.512 117.396 448.08C123.339 453.648 126.311 461.756 126.311 472.403C126.311 479.501 124.963 485.497 122.267 490.392C119.632 495.226 115.772 498.898 110.686 501.406L125.116 516H100.944L91.2016 505.078C80.54 504.894 72.3294 502.049 66.5697 496.542C60.8712 490.974 58.022 482.927 58.022 472.403ZM105.54 469.465C105.54 464.999 104.375 461.45 102.047 458.818C99.7798 456.187 96.4711 454.872 92.1207 454.872C87.7702 454.872 84.4615 456.187 82.1944 458.818C79.9273 461.45 78.7937 464.999 78.7937 469.465V475.34C78.7937 479.806 79.9273 483.355 82.1944 485.987C84.4615 488.618 87.7702 489.933 92.1207 489.933C96.4711 489.933 99.7798 488.618 102.047 485.987C104.375 483.355 105.54 479.806 105.54 475.34V469.465Z" fill="white"/>
<path d="M171.164 503.976L169.969 496.634C168.07 499.265 165.558 501.345 162.433 502.875C159.369 504.343 156.121 505.078 152.69 505.078C147.053 505.078 142.825 503.517 140.007 500.397C137.188 497.276 135.779 492.779 135.779 486.904V455.514H154.069V484.702C154.069 486.782 154.59 488.465 155.631 489.75C156.734 490.974 158.266 491.585 160.227 491.585C162.494 491.585 164.332 490.851 165.741 489.383C167.151 487.914 167.855 486.109 167.855 483.967V455.514H186.145V503.976H171.164Z" fill="white"/>
<path d="M222.357 454.413C230.874 454.413 237.553 456.585 242.394 460.93C247.295 465.213 249.746 471.485 249.746 479.745C249.746 488.006 247.295 494.308 242.394 498.653C237.553 502.936 230.874 505.078 222.357 505.078C213.84 505.078 207.161 502.936 202.321 498.653C197.48 494.37 195.06 488.067 195.06 479.745C195.06 471.424 197.48 465.121 202.321 460.838C207.161 456.554 213.84 454.413 222.357 454.413ZM222.357 466.804C216.352 466.804 213.35 470.261 213.35 477.175V482.407C213.35 489.26 216.352 492.687 222.357 492.687C228.423 492.687 231.456 489.26 231.456 482.407V477.175C231.456 470.261 228.423 466.804 222.357 466.804Z" fill="white"/>
<path d="M290.921 455.514V467.905H280.627V486.354C280.627 488.557 280.995 490.178 281.73 491.218C282.466 492.197 283.814 492.687 285.774 492.687H290.921V503.426C289.451 503.915 287.551 504.313 285.223 504.619C282.895 504.925 280.873 505.078 279.157 505.078C273.765 505.078 269.598 504.099 266.657 502.141C263.777 500.183 262.337 496.848 262.337 492.136V467.905H255.536V455.514H263.073L267.025 440.829H280.627V455.514H290.921Z" fill="white"/>
<path d="M324.499 454.413C333.384 454.413 340.155 456.493 344.812 460.654C349.53 464.815 351.889 471.179 351.889 479.745V482.866H315.492C315.492 486.354 316.258 488.985 317.79 490.759C319.383 492.534 321.865 493.421 325.235 493.421C328.298 493.421 330.535 492.779 331.944 491.494C333.415 490.209 334.15 488.495 334.15 486.354H351.889C351.889 492.228 349.652 496.817 345.179 500.121C340.706 503.426 334.181 505.078 325.602 505.078C316.595 505.078 309.61 502.997 304.647 498.836C299.684 494.614 297.202 488.251 297.202 479.745C297.202 471.424 299.622 465.121 304.463 460.838C309.304 456.554 315.982 454.413 324.499 454.413ZM325.235 466.069C319.475 466.069 316.258 468.792 315.584 474.238H333.415C333.415 471.729 332.679 469.741 331.209 468.272C329.8 466.804 327.808 466.069 325.235 466.069Z" fill="white"/>
<path d="M424.406 439.727C430.472 439.727 435.925 440.645 440.766 442.481C445.606 444.317 449.436 447.04 452.254 450.65C455.134 454.199 456.574 458.543 456.574 463.683H437.181C437.181 461.052 436.017 458.941 433.689 457.35C431.36 455.698 428.542 454.872 425.233 454.872C420.454 454.872 416.838 456.157 414.387 458.727C411.937 461.235 410.711 464.815 410.711 469.465V475.34C410.711 479.99 411.937 483.6 414.387 486.17C416.838 488.679 420.454 489.933 425.233 489.933C428.542 489.933 431.36 489.168 433.689 487.639C436.017 486.048 437.181 484.029 437.181 481.581H422.843V468.731H456.574V503.976H446.096L444.074 497.735C438.315 502.63 430.778 505.078 421.465 505.078C410.987 505.078 403.113 502.355 397.844 496.909C392.574 491.402 389.939 483.233 389.939 472.403C389.939 461.694 392.911 453.587 398.855 448.08C404.859 442.512 413.376 439.727 424.406 439.727Z" fill="white"/>
<path d="M492.971 454.413C501.856 454.413 508.627 456.493 513.283 460.654C518.001 464.815 520.36 471.179 520.36 479.745V482.866H483.964C483.964 486.354 484.73 488.985 486.262 490.759C487.855 492.534 490.337 493.421 493.707 493.421C496.77 493.421 499.007 492.779 500.416 491.494C501.887 490.209 502.622 488.495 502.622 486.354H520.36C520.36 492.228 518.124 496.817 513.651 500.121C509.178 503.426 502.652 505.078 494.074 505.078C485.067 505.078 478.082 502.997 473.119 498.836C468.156 494.614 465.674 488.251 465.674 479.745C465.674 471.424 468.094 465.121 472.935 460.838C477.775 456.554 484.454 454.413 492.971 454.413ZM493.707 466.069C487.947 466.069 484.73 468.792 484.056 474.238H501.887C501.887 471.729 501.151 469.741 499.681 468.272C498.271 466.804 496.28 466.069 493.707 466.069Z" fill="white"/>
<path d="M562.638 454.413C568.276 454.413 572.503 455.973 575.322 459.094C578.141 462.215 579.55 466.712 579.55 472.586V503.976H561.26V474.789C561.26 472.708 560.708 471.056 559.605 469.833C558.564 468.548 557.063 467.905 555.102 467.905C552.835 467.905 550.996 468.639 549.587 470.108C548.178 471.576 547.473 473.382 547.473 475.523V503.976H529.183V455.514H544.164L545.359 462.857C547.259 460.287 549.74 458.237 552.804 456.707C555.929 455.178 559.207 454.413 562.638 454.413Z" fill="white"/>
<path d="M615.578 454.413C624.463 454.413 631.233 456.493 635.89 460.654C640.608 464.815 642.967 471.179 642.967 479.745V482.866H606.571C606.571 486.354 607.337 488.985 608.868 490.759C610.462 492.534 612.943 493.421 616.313 493.421C619.377 493.421 621.613 492.779 623.023 491.494C624.493 490.209 625.228 488.495 625.228 486.354H642.967C642.967 492.228 640.731 496.817 636.258 500.121C631.785 503.426 625.259 505.078 616.681 505.078C607.674 505.078 600.688 502.997 595.725 498.836C590.762 494.614 588.281 488.251 588.281 479.745C588.281 471.424 590.701 465.121 595.541 460.838C600.382 456.554 607.061 454.413 615.578 454.413ZM616.313 466.069C610.553 466.069 607.337 468.792 606.663 474.238H624.493C624.493 471.729 623.758 469.741 622.287 468.272C620.878 466.804 618.887 466.069 616.313 466.069Z" fill="white"/>
<path d="M681.293 454.321C682.702 454.321 683.958 454.505 685.061 454.872C686.164 455.178 686.716 455.361 686.716 455.422V470.75H680.833C677.034 470.75 674.277 471.729 672.561 473.688C670.907 475.646 670.08 478.552 670.08 482.407V503.976H651.79V455.514H666.771L667.966 462.857C669.069 460.042 670.815 457.931 673.205 456.524C675.594 455.055 678.29 454.321 681.293 454.321Z" fill="white"/>
<path d="M718.143 454.413C725.557 454.413 731.593 455.667 736.249 458.176C740.906 460.624 743.234 464.631 743.234 470.2V489.107C743.234 490.147 743.48 491.004 743.97 491.677C744.46 492.35 745.195 492.687 746.176 492.687H749.484V503.242C749.301 503.364 748.81 503.579 748.014 503.885C747.279 504.129 746.206 504.374 744.797 504.619C743.388 504.925 741.764 505.078 739.926 505.078C736.372 505.078 733.431 504.558 731.102 503.517C728.835 502.416 727.273 500.917 726.415 499.02C724.087 500.856 721.482 502.324 718.603 503.426C715.723 504.527 712.353 505.078 708.492 505.078C697.096 505.078 691.397 500.55 691.397 491.494C691.397 486.782 692.653 483.202 695.166 480.755C697.739 478.246 701.415 476.533 706.195 475.615C710.974 474.697 717.224 474.238 724.944 474.238V471.852C724.944 469.955 724.27 468.517 722.922 467.538C721.636 466.559 719.951 466.069 717.867 466.069C715.968 466.069 714.313 466.406 712.904 467.079C711.556 467.752 710.882 468.823 710.882 470.292V470.659H692.868C692.807 470.353 692.776 469.924 692.776 469.374C692.776 464.784 694.951 461.144 699.301 458.451C703.713 455.759 709.994 454.413 718.143 454.413ZM724.944 482.866C719.736 482.866 715.876 483.447 713.364 484.61C710.913 485.711 709.687 487.21 709.687 489.107C709.687 492.167 711.771 493.696 715.937 493.696C718.327 493.696 720.41 493.054 722.187 491.769C724.025 490.484 724.944 488.893 724.944 486.996V482.866Z" fill="white"/>
<path d="M786.284 455.514V467.905H775.99V486.354C775.99 488.557 776.358 490.178 777.093 491.218C777.829 492.197 779.177 492.687 781.137 492.687H786.284V503.426C784.814 503.915 782.914 504.313 780.586 504.619C778.257 504.925 776.235 505.078 774.52 505.078C769.128 505.078 764.961 504.099 762.02 502.141C759.14 500.183 757.7 496.848 757.7 492.136V467.905H750.899V455.514H758.436L762.388 440.829H775.99V455.514H786.284Z" fill="white"/>
<path d="M819.862 454.413C828.379 454.413 835.058 456.585 839.899 460.93C844.801 465.213 847.252 471.485 847.252 479.745C847.252 488.006 844.801 494.308 839.899 498.653C835.058 502.936 828.379 505.078 819.862 505.078C811.345 505.078 804.667 502.936 799.826 498.653C794.985 494.37 792.565 488.067 792.565 479.745C792.565 471.424 794.985 465.121 799.826 460.838C804.667 456.554 811.345 454.413 819.862 454.413ZM819.862 466.804C813.858 466.804 810.855 470.261 810.855 477.175V482.407C810.855 489.26 813.858 492.687 819.862 492.687C825.928 492.687 828.961 489.26 828.961 482.407V477.175C828.961 470.261 825.928 466.804 819.862 466.804Z" fill="white"/>
<path d="M885.577 454.321C886.987 454.321 888.243 454.505 889.346 454.872C890.449 455.178 891 455.361 891 455.422V470.75H885.118C881.319 470.75 878.561 471.729 876.846 473.688C875.191 475.646 874.364 478.552 874.364 482.407V503.976H856.074V455.514H871.056L872.25 462.857C873.353 460.042 875.1 457.931 877.489 456.524C879.879 455.055 882.575 454.321 885.577 454.321Z" fill="white"/>
</svg>
