<svg width="510" height="440" viewBox="0 0 510 440" fill="none" xmlns="http://www.w3.org/2000/svg">
<g clip-path="url(#clip0)">
<path fill-rule="evenodd" clip-rule="evenodd" d="M244.946 16.2799C284.199 10.1994 328.485 26.1353 353.979 56.6168C378.228 85.6092 356.433 130.864 370.222 166.064C385.573 205.252 445.029 227.969 437.312 269.347C429.855 309.337 375.673 319.13 338.575 335.761C308.732 349.14 277.569 353.334 244.946 355.586C209.597 358.026 168.882 371.795 141.436 349.37C114.001 326.953 125.766 282.818 114.685 249.153C103.534 215.275 67.2835 186.481 76.4787 152.02C85.6661 117.588 130.218 109.332 157.957 86.9812C187.783 62.9494 207.104 22.1416 244.946 16.2799Z" fill="#7EB9F5"/>
<path fill-rule="evenodd" clip-rule="evenodd" d="M244.976 27.1425C281.155 24.3911 305.14 62.1693 335.581 81.5782C368.36 102.478 412.233 110.838 429.934 145.07C448.512 180.998 449.044 227.637 429.398 263.012C410.681 296.712 364.628 300.736 331.866 321.651C301.587 340.982 280.307 373.43 244.976 380.749C205.015 389.027 154.316 393.685 126.657 364.159C98.4685 334.068 125.936 284.867 117.613 244.793C110.752 211.76 72.6852 184.558 82.654 152.298C92.6143 120.066 137.048 115.419 164.017 94.6254C192.555 72.6211 208.809 29.8929 244.976 27.1425Z" fill="#E69D35"/>
<path fill-rule="evenodd" clip-rule="evenodd" d="M245.498 8.40395C284.959 2.97177 308.033 53.6313 336.159 81.9345C359.362 105.284 387.416 126.358 394.672 158.519C401.654 189.47 379.094 217.716 373.849 249.011C367.233 288.483 393.15 343.057 360.007 365.326C326.399 387.906 285.939 335.844 245.498 335.248C206.133 334.669 166.984 382.614 133.404 361.989C100.577 341.826 113.108 290.01 109.274 251.578C106.305 221.823 102.049 191.711 113.667 164.174C124.683 138.062 152.979 126.246 171.27 104.633C198.093 72.9396 204.448 14.0549 245.498 8.40395Z" fill="white"/>
<rect x="18.2141" y="329.836" width="446.767" height="73.2482" transform="rotate(-2.67316 18.2141 329.836)" fill="#E69D35"/>
<path d="M45.968 346.835C49.9236 346.717 53.2869 347.401 56.0578 348.887C58.8649 350.334 60.3169 352.681 60.4138 355.928L50.0584 356.237C50.0261 355.155 49.5182 354.404 48.5346 353.986C47.8517 353.632 47.0065 353.471 45.999 353.501C43.3122 353.581 41.9877 354.256 42.0256 355.524C42.0468 356.234 42.5283 356.723 43.4701 356.994C44.4119 357.265 45.9514 357.536 48.0884 357.809C50.7118 358.104 52.9081 358.486 54.6776 358.956C56.446 359.389 58.0027 360.239 59.3478 361.506C60.6918 362.736 61.3983 364.508 61.4673 366.821C61.5799 370.59 60.242 373.319 57.4539 375.009C54.703 376.697 51.0513 377.609 46.4986 377.745C43.8865 377.823 41.413 377.542 39.0782 376.902C36.7423 376.225 34.8238 375.143 33.3228 373.656C31.8217 372.17 31.0361 370.251 30.9659 367.9L41.3213 367.591L41.328 367.815C41.4032 369.082 41.9524 369.962 42.9755 370.455C44.0349 370.909 45.143 371.118 46.2998 371.084C49.3971 370.991 50.924 370.218 50.8805 368.762C50.8583 368.016 50.357 367.489 49.3767 367.182C48.3965 366.875 46.7999 366.568 44.5871 366.261C41.9242 365.892 39.7267 365.472 37.9946 365.001C36.2997 364.529 34.7995 363.696 33.494 362.502C32.1874 361.271 31.5006 359.536 31.4338 357.297C31.3257 353.678 32.6109 351.062 35.2893 349.451C38.0051 347.838 41.5647 346.966 45.968 346.835ZM86.5124 345.625C89.9455 345.522 92.5488 346.397 94.3221 348.249C96.0955 350.101 97.0357 352.818 97.1426 356.4L97.7141 375.544L86.5751 375.876L86.0437 358.076C86.0058 356.807 85.6399 355.81 84.9459 355.084C84.2881 354.319 83.3622 353.954 82.168 353.99C80.7873 354.031 79.6812 354.512 78.8496 355.434C78.0181 356.355 77.6218 357.468 77.6608 358.775L78.1788 376.127L67.0398 376.459L66.1575 346.905L75.2814 346.632L76.1428 351.088C77.2528 349.487 78.7268 348.191 80.5648 347.203C82.4401 346.213 84.4226 345.687 86.5124 345.625ZM118.754 344.662C123.941 344.507 128.048 345.711 131.075 348.272C134.138 350.795 135.745 354.575 135.895 359.613C136.046 364.651 134.668 368.539 131.762 371.278C128.892 373.978 124.863 375.405 119.676 375.56C114.489 375.715 110.382 374.531 107.356 372.006C104.33 369.482 102.742 365.683 102.59 360.607C102.439 355.532 103.798 351.645 106.668 348.945C109.538 346.244 113.567 344.817 118.754 344.662ZM118.979 352.219C115.322 352.328 113.557 354.491 113.682 358.708L113.778 361.898C113.902 366.078 115.793 368.113 119.45 368.004C123.145 367.893 124.93 365.749 124.805 361.569L124.71 358.378C124.584 354.162 122.673 352.108 118.979 352.219ZM168.489 373.431L163.408 357.111L163.184 357.118L159.03 373.713L148.17 374.037L136.485 344.805L148.464 344.447L153.463 361.778L153.855 361.766L157.979 344.163L169.062 343.832L174.062 361.163L174.454 361.151L178.466 343.552L189.325 343.228L179.349 373.107L168.489 373.431ZM203.98 345.535C206.039 343.195 208.766 341.975 212.162 341.874C216.155 341.754 219.272 342.968 221.515 345.516C223.756 348.026 224.952 351.819 225.104 356.894C225.257 362.006 224.29 365.901 222.203 368.578C220.117 371.255 217.077 372.653 213.084 372.772C208.98 372.894 205.796 371.365 203.535 368.183L202.709 372.409L193.641 372.68L192.429 332.098L203.568 331.765L203.98 345.535ZM208.937 350.205C207.295 350.254 206.082 350.888 205.296 352.107C204.51 353.288 204.144 354.812 204.2 356.678L204.255 358.525C204.311 360.391 204.767 361.89 205.622 363.022C206.478 364.154 207.726 364.696 209.368 364.647C212.577 364.551 214.125 362.6 214.012 358.794L213.923 355.827C213.808 351.984 212.146 350.11 208.937 350.205ZM245.299 340.884C250.486 340.729 254.593 341.933 257.62 344.494C260.683 347.017 262.29 350.798 262.441 355.835C262.591 360.873 261.213 364.761 258.307 367.5C255.437 370.2 251.408 371.628 246.221 371.783C241.034 371.937 236.928 370.753 233.902 368.229C230.876 365.704 229.287 361.905 229.135 356.83C228.984 351.755 230.343 347.867 233.213 345.167C236.083 342.467 240.112 341.039 245.299 340.884ZM245.524 348.441C241.867 348.55 240.102 350.713 240.228 354.93L240.323 358.12C240.448 362.3 242.339 364.335 245.996 364.226C249.69 364.116 251.475 361.971 251.35 357.791L251.255 354.601C251.129 350.384 249.219 348.331 245.524 348.441ZM281.962 339.79C286.477 339.655 290.176 340.31 293.058 341.756C295.938 343.164 297.429 345.565 297.531 348.961L297.875 360.492C297.894 361.127 298.059 361.644 298.369 362.046C298.68 362.448 299.134 362.64 299.731 362.622L301.746 362.562L301.938 368.999C301.829 369.077 301.534 369.216 301.055 369.417C300.611 369.58 299.963 369.749 299.109 369.924C298.256 370.136 297.27 370.259 296.15 370.292C293.986 370.357 292.185 370.093 290.748 369.501C289.348 368.87 288.369 367.984 287.812 366.843C286.427 368.005 284.868 368.948 283.134 369.672C281.4 370.396 279.358 370.793 277.007 370.863C270.066 371.071 266.513 368.413 266.348 362.89C266.263 360.017 266.962 357.811 268.448 356.272C269.969 354.696 272.177 353.584 275.071 352.937C277.965 352.291 281.763 351.897 286.465 351.757L286.422 350.301C286.387 349.145 285.95 348.28 285.112 347.707C284.31 347.134 283.275 346.866 282.006 346.904C280.849 346.938 279.848 347.173 279.002 347.61C278.193 348.045 277.802 348.71 277.829 349.605L277.836 349.829L266.865 350.157C266.822 349.971 266.795 349.711 266.785 349.375C266.702 346.576 267.96 344.316 270.561 342.595C273.198 340.873 276.999 339.938 281.962 339.79ZM286.622 357.018C283.45 357.113 281.11 357.538 279.601 358.292C278.128 359.009 277.409 359.945 277.444 361.102C277.5 362.968 278.796 363.863 281.334 363.787C282.789 363.744 284.046 363.314 285.105 362.498C286.201 361.681 286.732 360.694 286.697 359.537L286.622 357.018ZM322.654 338.519C323.512 338.493 324.28 338.582 324.959 338.786C325.636 338.953 325.975 339.055 325.976 339.092L326.255 348.44L322.673 348.547C320.359 348.616 318.698 349.263 317.689 350.488C316.717 351.713 316.266 353.5 316.336 355.851L316.729 369.005L305.59 369.338L304.707 339.783L313.831 339.511L314.693 343.967C315.313 342.23 316.338 340.911 317.768 340.009C319.197 339.07 320.825 338.574 322.654 338.519ZM353.377 367.911L352.3 363.742C350.233 367.053 347.147 368.77 343.042 368.892C339.049 369.011 335.931 367.797 333.689 365.25C331.447 362.702 330.249 358.872 330.097 353.76C329.945 348.685 330.913 344.827 333 342.188C335.087 339.511 338.127 338.113 342.119 337.994C345.515 337.892 348.311 338.948 350.506 341.161L350.095 327.391L361.234 327.059L362.445 367.641L353.377 367.911ZM345.836 346.119C342.626 346.214 341.079 348.184 341.194 352.028L341.282 354.994C341.396 358.801 343.057 360.656 346.267 360.56C347.909 360.511 349.123 359.896 349.909 358.715C350.696 357.533 351.061 356.01 351.005 354.144L350.95 352.297C350.894 350.431 350.439 348.932 349.583 347.799C348.727 346.63 347.477 346.07 345.836 346.119ZM368.624 334.401L368.398 326.845L379.537 326.512L379.763 334.069L368.624 334.401ZM369.609 367.427L368.727 337.872L379.866 337.539L380.749 367.094L369.609 367.427ZM407.33 336.047C410.763 335.945 413.367 336.819 415.14 338.671C416.914 340.523 417.854 343.24 417.961 346.823L418.532 365.966L407.393 366.299L406.862 348.499C406.824 347.23 406.458 346.232 405.764 345.506C405.106 344.741 404.18 344.377 402.986 344.412C401.605 344.454 400.499 344.935 399.668 345.856C398.836 346.777 398.44 347.891 398.479 349.197L398.997 366.549L387.858 366.882L386.975 337.327L396.099 337.055L396.961 341.511C398.071 339.909 399.545 338.614 401.383 337.625C403.258 336.636 405.241 336.109 407.33 336.047ZM457.394 329.678C457.462 331.955 456.936 333.726 455.816 334.992C454.733 336.257 453.063 337.222 450.804 337.887C451.911 338.675 452.779 339.62 453.41 340.722C454.077 341.785 454.428 342.933 454.465 344.164C454.559 347.299 453.435 349.704 451.095 351.38C448.792 353.055 445.868 353.945 442.323 354.051L438.069 354.178C435.718 354.248 434.558 354.824 434.591 355.906C434.606 356.429 434.88 356.85 435.413 357.17C435.944 357.453 436.863 357.575 438.169 357.536L448.244 357.236C451.528 357.138 454.035 357.922 455.766 359.588C457.496 361.255 458.405 363.525 458.49 366.398C458.554 368.525 458.049 370.37 456.975 371.934C455.901 373.497 454.424 374.699 452.545 375.539C450.665 376.38 448.605 376.834 446.366 376.9L429.91 377.392C428.566 377.432 427.307 377.152 426.131 376.552C424.993 375.951 424.071 375.101 423.366 374.001C422.662 372.939 422.29 371.737 422.249 370.393C422.206 368.938 422.614 367.6 423.474 366.379C424.335 365.195 425.429 364.285 426.754 363.648C425.84 363.04 425.108 362.296 424.559 361.416C424.009 360.536 423.719 359.574 423.688 358.529C423.645 357.074 424.147 355.751 425.194 354.562C426.241 353.336 427.56 352.493 429.153 352.035C427.67 351.146 426.481 350.117 425.587 348.948C424.692 347.742 424.224 346.468 424.184 345.124C424.082 341.691 425.39 339.206 428.108 337.668C430.862 336.092 434.534 335.235 439.124 335.098C441.139 335.038 442.765 335.101 444.004 335.288C445.798 334.077 446.942 332.997 447.436 332.049C447.967 331.062 448.227 330.363 448.214 329.952L457.394 329.678ZM439.186 340.923C437.954 340.959 436.956 341.307 436.191 341.964C435.427 342.622 435.062 343.548 435.098 344.742C435.135 345.974 435.517 346.896 436.245 347.509C437.009 348.084 438.063 348.351 439.406 348.311C440.75 348.271 441.786 347.942 442.514 347.322C443.279 346.664 443.643 345.72 443.606 344.488C443.569 343.257 443.15 342.354 442.349 341.781C441.583 341.169 440.529 340.883 439.186 340.923ZM435.604 365.456C434.746 365.482 434.043 365.727 433.497 366.192C432.989 366.692 432.748 367.372 432.774 368.23C432.799 369.088 433.1 369.77 433.675 370.276C434.25 370.782 434.949 371.023 435.77 370.998L444.502 370.737C445.323 370.713 446.005 370.431 446.549 369.892C447.132 369.389 447.41 368.708 447.385 367.85C447.359 366.992 447.059 366.328 446.485 365.86C445.911 365.392 445.194 365.17 444.336 365.196L435.604 365.456Z" fill="white"/>
<path d="M258.9 77.0374C258.9 77.0374 256.005 77.3412 256.005 72.1051C256.005 66.869 264.69 59.0872 265.312 61.98C265.934 64.8729 265.022 65.4804 265.022 65.4804C265.022 65.4804 272.867 58.7834 275.776 61.1411C278.686 63.4988 275.776 65.2056 275.776 65.2056C275.776 65.2056 284.461 65.5093 285.662 68.0985C286.863 70.6876 283.346 72.1774 283.346 72.1774C284.33 73.5222 284.839 75.1553 284.794 76.8204C284.504 79.1492 280.148 83.8067 280.148 83.8067C280.148 83.8067 278.107 72.756 271.13 72.756C264.154 72.756 258.9 73.8408 258.9 77.0374Z" fill="#393762"/>
<path d="M258.307 73.2623C258.307 73.2623 257.149 85.7594 258.017 91.5741C258.885 97.3887 262.099 105.532 269.364 106.111C276.63 106.689 278.671 99.1389 279.496 96.8102C280.321 94.4814 280.379 88.3775 280.379 88.3775C280.379 88.3775 283.867 87.5096 283.867 85.7594C283.867 84.0093 284.157 80.8271 280.668 81.1164C280.668 81.1164 278.917 70.3549 269.089 69.7764C259.262 69.1978 258.307 73.2623 258.307 73.2623Z" fill="#F6BA99"/>
<path d="M279.539 80.234C279.539 80.234 277.513 77.0374 268.207 77.0374C258.9 77.0374 254.818 78.7875 255.18 80.827C255.542 82.8665 254.891 89.2452 257.221 90.1276C259.551 91.0099 263.329 86.931 266.528 87.2347C269.726 87.5385 270.595 91.574 274.097 91.0099C277.6 90.4458 280.205 83.7777 280.205 83.7777L279.539 80.234Z" fill="#393762"/>
<path d="M311.526 37.7957C311.526 37.7957 301.93 34.5991 300.179 31.4025C298.428 28.2059 298.731 25.8771 300.772 26.4557C302.813 27.0343 307.459 28.4952 307.749 27.0487C308.038 25.6023 306.576 22.3912 303.681 19.1946C300.787 15.998 301.945 14.5371 308.921 15.1301C315.897 15.7232 321.426 20.9159 322.599 25.0093C323.771 29.1027 324.639 31.6918 324.639 31.6918L311.526 37.7957Z" fill="#393762"/>
<path d="M175.126 181.99C175.126 181.99 158.829 194.488 153.879 203.788L171.624 215.707L191.395 194.777L175.126 181.99Z" fill="#393762"/>
<path d="M254.818 109.596L251.33 98.8928L264.125 96.5641L270.826 103.232L271.695 95.3925L287.616 91.8921L290.814 104.404C290.814 104.404 305.737 95.6528 312.974 89.5489C320.21 83.445 323.438 77.6303 321.108 66.2903C318.778 54.9503 308.632 36.9277 308.632 36.9277L328.128 27.0486C328.128 27.0486 346.451 57.279 347.899 68.619C349.346 79.9591 332.774 104.375 324.929 114.543C317.084 124.712 299.614 136.92 299.614 136.92C299.614 136.92 300.483 170.072 288.267 193.605L237.957 162.796C241.202 155.895 242.792 148.332 242.603 140.709L190.251 197.973L172.217 182.569C172.217 182.569 218.75 123.265 254.818 109.596Z" fill="#E69D35"/>
<path d="M254.818 109.597C236.48 116.554 215.421 135.3 199.167 152.064L200.831 186.402L242.603 140.709L243.471 132.855L299.325 120.358C299.325 120.358 310.904 106.863 314.001 88.6667L313.002 89.5491C305.766 95.653 290.887 104.375 290.887 104.375L271.695 115.946L254.818 109.597Z" fill="#7EB9F5"/>
<path d="M271.695 115.99C271.695 115.99 273.736 164.836 260.347 175.293" stroke="#393762" stroke-width="0.5" stroke-miterlimit="10"/>
<path d="M297.053 191.87L251.388 165.704C251.388 165.704 245.859 152.686 235.684 151.746C225.509 150.805 218.808 159.889 215.32 162.796C211.832 165.704 179.541 204.656 179.541 204.656C182.443 207.114 184.973 209.978 187.053 213.161C189.947 217.819 194.043 228.566 194.043 228.566L231.27 192.231L284.504 225.658C284.504 225.658 247.553 267.735 247.553 269.196C247.553 270.657 244.933 272.971 247.553 274.128C250.172 275.285 270.522 276.746 272.274 277.918C274.025 279.089 278.063 281.404 278.063 281.404C278.063 281.404 327.52 226.165 328.967 218.036C330.414 209.907 324.929 206.826 316.751 202.617C311.28 199.796 297.053 191.87 297.053 191.87Z" fill="#DA5955"/>
<path d="M278.092 281.404C278.092 281.404 280.321 278.916 283.882 274.938C282.912 270.049 280.582 263.844 274.951 260.474C269.994 257.614 264.472 255.871 258.77 255.368C252.532 262.716 247.611 268.661 247.611 269.196C247.611 270.642 244.991 272.971 247.611 274.128C250.23 275.285 270.58 276.746 272.332 277.918C274.083 279.089 278.092 281.404 278.092 281.404Z" fill="#7EB9F5"/>
<path d="M187.053 213.161C189.947 217.818 194.029 228.565 194.029 228.565L209.443 213.523C207.706 208.706 204.754 202.79 200.137 200.085C196.105 197.614 191.516 196.196 186.792 195.963C182.45 201.083 179.555 204.728 179.555 204.728C182.444 207.168 184.968 210.007 187.053 213.161V213.161Z" fill="#7EB9F5"/>
<path d="M191.699 235.465C191.699 235.465 195.766 232.572 193.739 221.811C191.713 211.049 181.524 200.591 174.822 199.709C168.121 198.827 160.349 206.117 160.349 206.117L191.699 235.465Z" fill="#7EA7C9"/>
<path d="M244.354 271.221C244.354 271.221 258.307 264.828 270.233 268.024C282.159 271.221 285.358 291.861 279.25 296.519L244.354 271.221Z" fill="#7EA7C9"/>
<path d="M106 146.625C106.79 153.793 108.978 160.737 112.441 167.063C118.129 177.304 141.605 201.156 141.605 201.156L309.804 326.836C309.804 326.836 317.75 331.002 322.295 331.378C326.839 331.754 338.216 333.273 330.632 329.483C323.047 325.693 315.868 321.542 301.467 310.94C287.066 300.337 144.645 189.035 144.645 189.035C144.645 189.035 126.828 173.124 120.401 164.807C113.975 156.49 106.376 139.075 106 146.625Z" fill="#DECBB6"/>
<path d="M231.255 192.159L245.396 176.928" stroke="#393762" stroke-width="0.5" stroke-miterlimit="10"/>
<path d="M284.49 225.586L298.051 210.615" stroke="#393762" stroke-width="0.5" stroke-miterlimit="10"/>
<path d="M321.166 309.233C321.166 311.432 318.879 313.211 316.057 313.211C313.234 313.211 310.933 311.432 310.933 309.233C310.933 307.034 313.22 305.255 316.057 305.255C318.893 305.255 321.166 307.034 321.166 309.233Z" fill="#EFE6DC"/>
<path d="M335.176 318.317C335.361 318.991 335.329 319.707 335.086 320.362C334.842 321.018 334.399 321.581 333.818 321.971C333.237 322.361 332.549 322.56 331.849 322.539C331.15 322.517 330.474 322.277 329.919 321.852C329.363 321.426 328.955 320.838 328.752 320.168C328.549 319.499 328.561 318.783 328.787 318.121C329.013 317.459 329.441 316.884 330.011 316.478C330.58 316.072 331.263 315.855 331.963 315.858C332.714 315.767 333.471 315.973 334.071 316.433C334.672 316.892 335.068 317.568 335.176 318.317V318.317Z" fill="#EFE6DC"/>
<path d="M327.607 321.152C327.607 321.991 326.666 322.671 325.522 322.671C324.379 322.671 323.438 321.991 323.438 321.152C323.438 320.313 324.365 319.705 325.522 319.705C326.68 319.705 327.607 320.327 327.607 321.152Z" fill="#EFE6DC"/>
<path d="M338.216 327.588C338.216 328.225 337.362 328.731 336.32 328.731C335.278 328.731 334.424 328.225 334.424 327.588C334.424 326.952 335.263 326.46 336.32 326.46C337.376 326.46 338.216 326.966 338.216 327.588Z" fill="#EFE6DC"/>
</g>
<defs>
<clipPath id="clip0">
<rect width="510" height="440" fill="white"/>
</clipPath>
</defs>
</svg>
